<?xml version="1.0" encoding="utf-8" standalone="no"?>
<!DOCTYPE svg PUBLIC "-//W3C//DTD SVG 1.1//EN"
  "http://www.w3.org/Graphics/SVG/1.1/DTD/svg11.dtd">
<svg xmlns:xlink="http://www.w3.org/1999/xlink" width="514.331563pt" height="244.656781pt" viewBox="0 0 514.331563 244.656781" xmlns="http://www.w3.org/2000/svg" version="1.1">
 <metadata>
  <rdf:RDF xmlns:dc="http://purl.org/dc/elements/1.1/" xmlns:cc="http://creativecommons.org/ns#" xmlns:rdf="http://www.w3.org/1999/02/22-rdf-syntax-ns#">
   <cc:Work>
    <dc:type rdf:resource="http://purl.org/dc/dcmitype/StillImage"/>
    <dc:date>2026-07-20T23:49:32.822343</dc:date>
    <dc:format>image/svg+xml</dc:format>
    <dc:creator>
     <cc:Agent>
      <dc:title>Matplotlib v3.10.9, https://matplotlib.org/</dc:title>
     </cc:Agent>
    </dc:creator>
   </cc:Work>
  </rdf:RDF>
 </metadata>
 <defs>
  <style type="text/css">*{stroke-linejoin: round; stroke-linecap: butt}</style>
 </defs>
 <g id="figure_1">
  <g id="patch_1">
   <path d="M 0 244.656781 
L 514.331563 244.656781 
L 514.331563 -0 
L 0 -0 
z
" style="fill: #fcfcfb"/>
  </g>
  <g id="axes_1">
   <g id="patch_2">
    <path d="M 35.557813 209.961469 
L 437.317813 209.961469 
L 437.317813 21.465469 
L 35.557813 21.465469 
z
" style="fill: #fcfcfb"/>
   </g>
   <g id="matplotlib.axis_1">
    <g id="xtick_1">
     <g id="line2d_1">
      <path d="M 35.557813 209.961469 
L 35.557813 21.465469 
" clip-path="url(#p3c938cc222)" style="fill: none; stroke: #e1e0d9; stroke-width: 0.6; stroke-linecap: square"/>
     </g>
     <g id="line2d_2">
      <defs>
       <path id="m20dece836f" d="M 0 0 
L 0 3.5 
" style="stroke: #898781; stroke-width: 0.8"/>
      </defs>
      <g>
       <use xlink:href="#m20dece836f" x="35.557813" y="209.961469" style="fill: #898781; stroke: #898781; stroke-width: 0.8"/>
      </g>
     </g>
     <g id="text_1">
      <!-- 0 -->
      <g style="fill: #898781" transform="translate(33.401563 222.883969) scale(0.08 -0.08)">
       <defs>
        <path id="SegoeUI-30" d="M 3188 2259 
Q 3188 1697 3086 1262 
Q 2984 828 2792 529 
Q 2600 231 2320 76 
Q 2041 -78 1684 -78 
Q 1347 -78 1083 70 
Q 819 219 637 503 
Q 456 788 362 1202 
Q 269 1616 269 2150 
Q 269 2738 367 3188 
Q 466 3638 656 3942 
Q 847 4247 1130 4401 
Q 1413 4556 1778 4556 
Q 3188 4556 3188 2259 
z
M 2663 2209 
Q 2663 4122 1753 4122 
Q 794 4122 794 2175 
Q 794 359 1734 359 
Q 2663 359 2663 2209 
z
" transform="scale(0.015625)"/>
       </defs>
       <use xlink:href="#SegoeUI-30"/>
      </g>
     </g>
    </g>
    <g id="xtick_2">
     <g id="line2d_3">
      <path d="M 86.030174 209.961469 
L 86.030174 21.465469 
" clip-path="url(#p3c938cc222)" style="fill: none; stroke: #e1e0d9; stroke-width: 0.6; stroke-linecap: square"/>
     </g>
     <g id="line2d_4">
      <g>
       <use xlink:href="#m20dece836f" x="86.030174" y="209.961469" style="fill: #898781; stroke: #898781; stroke-width: 0.8"/>
      </g>
     </g>
     <g id="text_2">
      <!-- 25 -->
      <g style="fill: #898781" transform="translate(81.717674 222.883969) scale(0.08 -0.08)">
       <defs>
        <path id="SegoeUI-32" d="M 2413 3306 
Q 2413 3513 2348 3666 
Q 2284 3819 2173 3920 
Q 2063 4022 1913 4072 
Q 1763 4122 1588 4122 
Q 1438 4122 1294 4081 
Q 1150 4041 1014 3969 
Q 878 3897 751 3797 
Q 625 3697 516 3575 
L 516 4125 
Q 731 4334 998 4445 
Q 1266 4556 1650 4556 
Q 1925 4556 2159 4476 
Q 2394 4397 2566 4244 
Q 2738 4091 2836 3866 
Q 2934 3641 2934 3350 
Q 2934 3084 2873 2868 
Q 2813 2653 2689 2462 
Q 2566 2272 2378 2097 
Q 2191 1922 1938 1741 
Q 1622 1516 1417 1356 
Q 1213 1197 1092 1058 
Q 972 919 923 780 
Q 875 641 875 459 
L 3106 459 
L 3106 0 
L 341 0 
L 341 222 
Q 341 509 403 728 
Q 466 947 609 1144 
Q 753 1341 986 1537 
Q 1219 1734 1556 1981 
Q 1800 2156 1964 2315 
Q 2128 2475 2228 2634 
Q 2328 2794 2370 2958 
Q 2413 3122 2413 3306 
z
" transform="scale(0.015625)"/>
        <path id="SegoeUI-35" d="M 3028 1369 
Q 3028 1041 2915 775 
Q 2803 509 2595 318 
Q 2388 128 2094 25 
Q 1800 -78 1441 -78 
Q 816 -78 513 109 
L 513 653 
Q 969 359 1447 359 
Q 1691 359 1886 431 
Q 2081 503 2218 631 
Q 2356 759 2429 940 
Q 2503 1122 2503 1338 
Q 2503 1775 2209 2023 
Q 1916 2272 1356 2272 
Q 1266 2272 1166 2269 
Q 1066 2266 966 2261 
Q 866 2256 770 2250 
Q 675 2244 597 2234 
L 750 4481 
L 2822 4481 
L 2822 4019 
L 1194 4019 
L 1103 2703 
Q 1203 2709 1315 2714 
Q 1428 2719 1516 2719 
Q 1872 2719 2153 2625 
Q 2434 2531 2629 2357 
Q 2825 2184 2926 1932 
Q 3028 1681 3028 1369 
z
" transform="scale(0.015625)"/>
       </defs>
       <use xlink:href="#SegoeUI-32"/>
       <use xlink:href="#SegoeUI-35" transform="translate(53.90625 0)"/>
      </g>
     </g>
    </g>
    <g id="xtick_3">
     <g id="line2d_5">
      <path d="M 136.502536 209.961469 
L 136.502536 21.465469 
" clip-path="url(#p3c938cc222)" style="fill: none; stroke: #e1e0d9; stroke-width: 0.6; stroke-linecap: square"/>
     </g>
     <g id="line2d_6">
      <g>
       <use xlink:href="#m20dece836f" x="136.502536" y="209.961469" style="fill: #898781; stroke: #898781; stroke-width: 0.8"/>
      </g>
     </g>
     <g id="text_3">
      <!-- 50 -->
      <g style="fill: #898781" transform="translate(132.190036 222.883969) scale(0.08 -0.08)">
       <use xlink:href="#SegoeUI-35"/>
       <use xlink:href="#SegoeUI-30" transform="translate(53.90625 0)"/>
      </g>
     </g>
    </g>
    <g id="xtick_4">
     <g id="line2d_7">
      <path d="M 186.974898 209.961469 
L 186.974898 21.465469 
" clip-path="url(#p3c938cc222)" style="fill: none; stroke: #e1e0d9; stroke-width: 0.6; stroke-linecap: square"/>
     </g>
     <g id="line2d_8">
      <g>
       <use xlink:href="#m20dece836f" x="186.974898" y="209.961469" style="fill: #898781; stroke: #898781; stroke-width: 0.8"/>
      </g>
     </g>
     <g id="text_4">
      <!-- 75 -->
      <g style="fill: #898781" transform="translate(182.662398 222.883969) scale(0.08 -0.08)">
       <defs>
        <path id="SegoeUI-37" d="M 3156 4184 
Q 3053 4006 2908 3740 
Q 2763 3475 2600 3144 
Q 2438 2813 2269 2431 
Q 2100 2050 1953 1644 
Q 1806 1238 1695 820 
Q 1584 403 1534 0 
L 984 0 
Q 1041 400 1158 817 
Q 1275 1234 1423 1636 
Q 1572 2038 1737 2409 
Q 1903 2781 2059 3093 
Q 2216 3406 2345 3645 
Q 2475 3884 2553 4019 
L 306 4019 
L 306 4481 
L 3156 4481 
L 3156 4184 
z
" transform="scale(0.015625)"/>
       </defs>
       <use xlink:href="#SegoeUI-37"/>
       <use xlink:href="#SegoeUI-35" transform="translate(53.90625 0)"/>
      </g>
     </g>
    </g>
    <g id="xtick_5">
     <g id="line2d_9">
      <path d="M 237.44726 209.961469 
L 237.44726 21.465469 
" clip-path="url(#p3c938cc222)" style="fill: none; stroke: #e1e0d9; stroke-width: 0.6; stroke-linecap: square"/>
     </g>
     <g id="line2d_10">
      <g>
       <use xlink:href="#m20dece836f" x="237.44726" y="209.961469" style="fill: #898781; stroke: #898781; stroke-width: 0.8"/>
      </g>
     </g>
     <g id="text_5">
      <!-- 100 -->
      <g style="fill: #898781" transform="translate(230.97851 222.883969) scale(0.08 -0.08)">
       <defs>
        <path id="SegoeUI-31" d="M 2263 0 
L 1750 0 
L 1750 3872 
Q 1691 3813 1577 3736 
Q 1463 3659 1320 3584 
Q 1178 3509 1020 3443 
Q 863 3378 713 3341 
L 713 3859 
Q 881 3906 1070 3986 
Q 1259 4066 1442 4164 
Q 1625 4263 1787 4370 
Q 1950 4478 2069 4581 
L 2263 4581 
L 2263 0 
z
" transform="scale(0.015625)"/>
       </defs>
       <use xlink:href="#SegoeUI-31"/>
       <use xlink:href="#SegoeUI-30" transform="translate(53.90625 0)"/>
       <use xlink:href="#SegoeUI-30" transform="translate(107.8125 0)"/>
      </g>
     </g>
    </g>
    <g id="xtick_6">
     <g id="line2d_11">
      <path d="M 287.919622 209.961469 
L 287.919622 21.465469 
" clip-path="url(#p3c938cc222)" style="fill: none; stroke: #e1e0d9; stroke-width: 0.6; stroke-linecap: square"/>
     </g>
     <g id="line2d_12">
      <g>
       <use xlink:href="#m20dece836f" x="287.919622" y="209.961469" style="fill: #898781; stroke: #898781; stroke-width: 0.8"/>
      </g>
     </g>
     <g id="text_6">
      <!-- 125 -->
      <g style="fill: #898781" transform="translate(281.450872 222.883969) scale(0.08 -0.08)">
       <use xlink:href="#SegoeUI-31"/>
       <use xlink:href="#SegoeUI-32" transform="translate(53.90625 0)"/>
       <use xlink:href="#SegoeUI-35" transform="translate(107.8125 0)"/>
      </g>
     </g>
    </g>
    <g id="xtick_7">
     <g id="line2d_13">
      <path d="M 338.391983 209.961469 
L 338.391983 21.465469 
" clip-path="url(#p3c938cc222)" style="fill: none; stroke: #e1e0d9; stroke-width: 0.6; stroke-linecap: square"/>
     </g>
     <g id="line2d_14">
      <g>
       <use xlink:href="#m20dece836f" x="338.391983" y="209.961469" style="fill: #898781; stroke: #898781; stroke-width: 0.8"/>
      </g>
     </g>
     <g id="text_7">
      <!-- 150 -->
      <g style="fill: #898781" transform="translate(331.923233 222.883969) scale(0.08 -0.08)">
       <use xlink:href="#SegoeUI-31"/>
       <use xlink:href="#SegoeUI-35" transform="translate(53.90625 0)"/>
       <use xlink:href="#SegoeUI-30" transform="translate(107.8125 0)"/>
      </g>
     </g>
    </g>
    <g id="xtick_8">
     <g id="line2d_15">
      <path d="M 388.864345 209.961469 
L 388.864345 21.465469 
" clip-path="url(#p3c938cc222)" style="fill: none; stroke: #e1e0d9; stroke-width: 0.6; stroke-linecap: square"/>
     </g>
     <g id="line2d_16">
      <g>
       <use xlink:href="#m20dece836f" x="388.864345" y="209.961469" style="fill: #898781; stroke: #898781; stroke-width: 0.8"/>
      </g>
     </g>
     <g id="text_8">
      <!-- 175 -->
      <g style="fill: #898781" transform="translate(382.395595 222.883969) scale(0.08 -0.08)">
       <use xlink:href="#SegoeUI-31"/>
       <use xlink:href="#SegoeUI-37" transform="translate(53.90625 0)"/>
       <use xlink:href="#SegoeUI-35" transform="translate(107.8125 0)"/>
      </g>
     </g>
    </g>
    <g id="text_9">
     <!-- Episode -->
     <g style="fill: #52514e" transform="translate(220.875547 235.386781) scale(0.09 -0.09)">
      <defs>
       <path id="SegoeUI-45" d="M 2963 0 
L 588 0 
L 588 4481 
L 2863 4481 
L 2863 4006 
L 1113 4006 
L 1113 2516 
L 2731 2516 
L 2731 2044 
L 1113 2044 
L 1113 475 
L 2963 475 
L 2963 0 
z
" transform="scale(0.015625)"/>
       <path id="SegoeUI-70" d="M 1044 463 
L 1031 463 
L 1031 -1472 
L 519 -1472 
L 519 3200 
L 1031 3200 
L 1031 2638 
L 1044 2638 
Q 1422 3275 2150 3275 
Q 2769 3275 3116 2845 
Q 3463 2416 3463 1694 
Q 3463 891 3072 408 
Q 2681 -75 2003 -75 
Q 1381 -75 1044 463 
z
M 1031 1753 
L 1031 1306 
Q 1031 909 1289 632 
Q 1547 356 1944 356 
Q 2409 356 2673 712 
Q 2938 1069 2938 1703 
Q 2938 2238 2691 2541 
Q 2444 2844 2022 2844 
Q 1575 2844 1303 2533 
Q 1031 2222 1031 1753 
z
" transform="scale(0.015625)"/>
       <path id="SegoeUI-69" d="M 781 4013 
Q 644 4013 547 4106 
Q 450 4200 450 4344 
Q 450 4488 547 4583 
Q 644 4678 781 4678 
Q 922 4678 1020 4583 
Q 1119 4488 1119 4344 
Q 1119 4206 1020 4109 
Q 922 4013 781 4013 
z
M 1031 0 
L 519 0 
L 519 3200 
L 1031 3200 
L 1031 0 
z
" transform="scale(0.015625)"/>
       <path id="SegoeUI-73" d="M 325 116 
L 325 666 
Q 744 356 1247 356 
Q 1922 356 1922 806 
Q 1922 934 1864 1023 
Q 1806 1113 1707 1181 
Q 1609 1250 1476 1304 
Q 1344 1359 1191 1419 
Q 978 1503 817 1589 
Q 656 1675 548 1783 
Q 441 1891 386 2028 
Q 331 2166 331 2350 
Q 331 2575 434 2748 
Q 538 2922 709 3039 
Q 881 3156 1101 3215 
Q 1322 3275 1556 3275 
Q 1972 3275 2300 3131 
L 2300 2613 
Q 1947 2844 1488 2844 
Q 1344 2844 1228 2811 
Q 1113 2778 1030 2718 
Q 947 2659 901 2576 
Q 856 2494 856 2394 
Q 856 2269 901 2184 
Q 947 2100 1034 2034 
Q 1122 1969 1247 1916 
Q 1372 1863 1531 1800 
Q 1744 1719 1912 1633 
Q 2081 1547 2200 1439 
Q 2319 1331 2383 1190 
Q 2447 1050 2447 856 
Q 2447 619 2342 444 
Q 2238 269 2063 153 
Q 1888 38 1659 -18 
Q 1431 -75 1181 -75 
Q 688 -75 325 116 
z
" transform="scale(0.015625)"/>
       <path id="SegoeUI-6f" d="M 1856 -75 
Q 1147 -75 723 373 
Q 300 822 300 1563 
Q 300 2369 740 2822 
Q 1181 3275 1931 3275 
Q 2647 3275 3048 2834 
Q 3450 2394 3450 1613 
Q 3450 847 3017 386 
Q 2584 -75 1856 -75 
z
M 1894 2844 
Q 1400 2844 1112 2508 
Q 825 2172 825 1581 
Q 825 1013 1115 684 
Q 1406 356 1894 356 
Q 2391 356 2658 678 
Q 2925 1000 2925 1594 
Q 2925 2194 2658 2519 
Q 2391 2844 1894 2844 
z
" transform="scale(0.015625)"/>
       <path id="SegoeUI-64" d="M 3250 0 
L 2738 0 
L 2738 544 
L 2725 544 
Q 2369 -75 1625 -75 
Q 1022 -75 661 354 
Q 300 784 300 1525 
Q 300 2319 700 2797 
Q 1100 3275 1766 3275 
Q 2425 3275 2725 2756 
L 2738 2756 
L 2738 4738 
L 3250 4738 
L 3250 0 
z
M 2738 1447 
L 2738 1919 
Q 2738 2306 2481 2575 
Q 2225 2844 1831 2844 
Q 1363 2844 1094 2500 
Q 825 2156 825 1550 
Q 825 997 1083 676 
Q 1341 356 1775 356 
Q 2203 356 2470 665 
Q 2738 975 2738 1447 
z
" transform="scale(0.015625)"/>
       <path id="SegoeUI-65" d="M 3091 1472 
L 831 1472 
Q 844 938 1119 647 
Q 1394 356 1875 356 
Q 2416 356 2869 713 
L 2869 231 
Q 2447 -75 1753 -75 
Q 1075 -75 687 361 
Q 300 797 300 1588 
Q 300 2334 723 2804 
Q 1147 3275 1775 3275 
Q 2403 3275 2747 2869 
Q 3091 2463 3091 1741 
L 3091 1472 
z
M 2566 1906 
Q 2563 2350 2352 2597 
Q 2141 2844 1766 2844 
Q 1403 2844 1150 2584 
Q 897 2325 838 1906 
L 2566 1906 
z
" transform="scale(0.015625)"/>
      </defs>
      <use xlink:href="#SegoeUI-45"/>
      <use xlink:href="#SegoeUI-70" transform="translate(50.585938 0)"/>
      <use xlink:href="#SegoeUI-69" transform="translate(109.375 0)"/>
      <use xlink:href="#SegoeUI-73" transform="translate(133.59375 0)"/>
      <use xlink:href="#SegoeUI-6f" transform="translate(176.025391 0)"/>
      <use xlink:href="#SegoeUI-64" transform="translate(234.619141 0)"/>
      <use xlink:href="#SegoeUI-65" transform="translate(293.505859 0)"/>
     </g>
    </g>
   </g>
   <g id="matplotlib.axis_2">
    <g id="ytick_1">
     <g id="line2d_17">
      <path d="M 35.557813 209.961469 
L 437.317813 209.961469 
" clip-path="url(#p3c938cc222)" style="fill: none; stroke: #e1e0d9; stroke-width: 0.6; stroke-linecap: square"/>
     </g>
     <g id="line2d_18">
      <defs>
       <path id="me90ddd1570" d="M 0 0 
L -3.5 0 
" style="stroke: #898781; stroke-width: 0.8"/>
      </defs>
      <g>
       <use xlink:href="#me90ddd1570" x="35.557813" y="209.961469" style="fill: #898781; stroke: #898781; stroke-width: 0.8"/>
      </g>
     </g>
     <g id="text_10">
      <!-- 0 -->
      <g style="fill: #898781" transform="translate(24.245313 212.922719) scale(0.08 -0.08)">
       <use xlink:href="#SegoeUI-30"/>
      </g>
     </g>
    </g>
    <g id="ytick_2">
     <g id="line2d_19">
      <path d="M 35.557813 175.438392 
L 437.317813 175.438392 
" clip-path="url(#p3c938cc222)" style="fill: none; stroke: #e1e0d9; stroke-width: 0.6; stroke-linecap: square"/>
     </g>
     <g id="line2d_20">
      <g>
       <use xlink:href="#me90ddd1570" x="35.557813" y="175.438392" style="fill: #898781; stroke: #898781; stroke-width: 0.8"/>
      </g>
     </g>
     <g id="text_11">
      <!-- 10 -->
      <g style="fill: #898781" transform="translate(19.932813 178.399642) scale(0.08 -0.08)">
       <use xlink:href="#SegoeUI-31"/>
       <use xlink:href="#SegoeUI-30" transform="translate(53.90625 0)"/>
      </g>
     </g>
    </g>
    <g id="ytick_3">
     <g id="line2d_21">
      <path d="M 35.557813 140.915315 
L 437.317813 140.915315 
" clip-path="url(#p3c938cc222)" style="fill: none; stroke: #e1e0d9; stroke-width: 0.6; stroke-linecap: square"/>
     </g>
     <g id="line2d_22">
      <g>
       <use xlink:href="#me90ddd1570" x="35.557813" y="140.915315" style="fill: #898781; stroke: #898781; stroke-width: 0.8"/>
      </g>
     </g>
     <g id="text_12">
      <!-- 20 -->
      <g style="fill: #898781" transform="translate(19.932813 143.876565) scale(0.08 -0.08)">
       <use xlink:href="#SegoeUI-32"/>
       <use xlink:href="#SegoeUI-30" transform="translate(53.90625 0)"/>
      </g>
     </g>
    </g>
    <g id="ytick_4">
     <g id="line2d_23">
      <path d="M 35.557813 106.392238 
L 437.317813 106.392238 
" clip-path="url(#p3c938cc222)" style="fill: none; stroke: #e1e0d9; stroke-width: 0.6; stroke-linecap: square"/>
     </g>
     <g id="line2d_24">
      <g>
       <use xlink:href="#me90ddd1570" x="35.557813" y="106.392238" style="fill: #898781; stroke: #898781; stroke-width: 0.8"/>
      </g>
     </g>
     <g id="text_13">
      <!-- 30 -->
      <g style="fill: #898781" transform="translate(19.932813 109.353488) scale(0.08 -0.08)">
       <defs>
        <path id="SegoeUI-33" d="M 2978 1269 
Q 2978 966 2864 717 
Q 2750 469 2542 292 
Q 2334 116 2043 19 
Q 1753 -78 1403 -78 
Q 763 -78 384 166 
L 384 716 
Q 838 359 1422 359 
Q 1656 359 1845 418 
Q 2034 478 2170 590 
Q 2306 703 2379 862 
Q 2453 1022 2453 1222 
Q 2453 2100 1203 2100 
L 831 2100 
L 831 2534 
L 1184 2534 
Q 2291 2534 2291 3359 
Q 2291 4122 1447 4122 
Q 972 4122 556 3803 
L 556 4300 
Q 984 4556 1575 4556 
Q 1856 4556 2084 4478 
Q 2313 4400 2475 4259 
Q 2638 4119 2727 3922 
Q 2816 3725 2816 3488 
Q 2816 2603 1922 2350 
L 1922 2338 
Q 2150 2313 2344 2227 
Q 2538 2141 2678 2003 
Q 2819 1866 2898 1680 
Q 2978 1494 2978 1269 
z
" transform="scale(0.015625)"/>
       </defs>
       <use xlink:href="#SegoeUI-33"/>
       <use xlink:href="#SegoeUI-30" transform="translate(53.90625 0)"/>
      </g>
     </g>
    </g>
    <g id="ytick_5">
     <g id="line2d_25">
      <path d="M 35.557813 71.869161 
L 437.317813 71.869161 
" clip-path="url(#p3c938cc222)" style="fill: none; stroke: #e1e0d9; stroke-width: 0.6; stroke-linecap: square"/>
     </g>
     <g id="line2d_26">
      <g>
       <use xlink:href="#me90ddd1570" x="35.557813" y="71.869161" style="fill: #898781; stroke: #898781; stroke-width: 0.8"/>
      </g>
     </g>
     <g id="text_14">
      <!-- 40 -->
      <g style="fill: #898781" transform="translate(19.932813 74.830411) scale(0.08 -0.08)">
       <defs>
        <path id="SegoeUI-34" d="M 2656 4481 
L 2656 1522 
L 3231 1522 
L 3231 1053 
L 2656 1053 
L 2656 0 
L 2150 0 
L 2150 1053 
L 44 1053 
L 44 1497 
Q 338 1828 638 2204 
Q 938 2581 1211 2968 
Q 1484 3356 1717 3742 
Q 1950 4128 2109 4481 
L 2656 4481 
z
M 622 1522 
L 2150 1522 
L 2150 3716 
Q 1916 3306 1706 2984 
Q 1497 2663 1308 2400 
Q 1119 2138 947 1925 
Q 775 1713 622 1522 
z
" transform="scale(0.015625)"/>
       </defs>
       <use xlink:href="#SegoeUI-34"/>
       <use xlink:href="#SegoeUI-30" transform="translate(53.90625 0)"/>
      </g>
     </g>
    </g>
    <g id="ytick_6">
     <g id="line2d_27">
      <path d="M 35.557813 37.346084 
L 437.317813 37.346084 
" clip-path="url(#p3c938cc222)" style="fill: none; stroke: #e1e0d9; stroke-width: 0.6; stroke-linecap: square"/>
     </g>
     <g id="line2d_28">
      <g>
       <use xlink:href="#me90ddd1570" x="35.557813" y="37.346084" style="fill: #898781; stroke: #898781; stroke-width: 0.8"/>
      </g>
     </g>
     <g id="text_15">
      <!-- 50 -->
      <g style="fill: #898781" transform="translate(19.932813 40.307334) scale(0.08 -0.08)">
       <use xlink:href="#SegoeUI-35"/>
       <use xlink:href="#SegoeUI-30" transform="translate(53.90625 0)"/>
      </g>
     </g>
    </g>
    <g id="text_16">
     <!-- Cards to foundation -->
     <g style="fill: #52514e" transform="translate(13.862813 155.321203) rotate(-90) scale(0.09 -0.09)">
      <defs>
       <path id="SegoeUI-43" d="M 3638 188 
Q 3141 -75 2400 -75 
Q 1444 -75 869 540 
Q 294 1156 294 2156 
Q 294 3231 941 3893 
Q 1588 4556 2581 4556 
Q 3219 4556 3638 4372 
L 3638 3813 
Q 3156 4081 2575 4081 
Q 1803 4081 1323 3565 
Q 844 3050 844 2188 
Q 844 1369 1292 883 
Q 1741 397 2469 397 
Q 3144 397 3638 697 
L 3638 188 
z
" transform="scale(0.015625)"/>
       <path id="SegoeUI-61" d="M 2809 0 
L 2297 0 
L 2297 500 
L 2284 500 
Q 1950 -75 1300 -75 
Q 822 -75 551 178 
Q 281 431 281 850 
Q 281 1747 1338 1894 
L 2297 2028 
Q 2297 2844 1638 2844 
Q 1059 2844 594 2450 
L 594 2975 
Q 1066 3275 1681 3275 
Q 2809 3275 2809 2081 
L 2809 0 
z
M 2297 1619 
L 1525 1513 
Q 1169 1463 987 1336 
Q 806 1209 806 888 
Q 806 653 973 504 
Q 1141 356 1419 356 
Q 1800 356 2048 623 
Q 2297 891 2297 1300 
L 2297 1619 
z
" transform="scale(0.015625)"/>
       <path id="SegoeUI-72" d="M 2188 2681 
Q 2053 2784 1800 2784 
Q 1472 2784 1251 2475 
Q 1031 2166 1031 1631 
L 1031 0 
L 519 0 
L 519 3200 
L 1031 3200 
L 1031 2541 
L 1044 2541 
Q 1153 2878 1378 3067 
Q 1603 3256 1881 3256 
Q 2081 3256 2188 3213 
L 2188 2681 
z
" transform="scale(0.015625)"/>
       <path id="SegoeUI-20" transform="scale(0.015625)"/>
       <path id="SegoeUI-74" d="M 2003 31 
Q 1822 -69 1525 -69 
Q 684 -69 684 869 
L 684 2763 
L 134 2763 
L 134 3200 
L 684 3200 
L 684 3981 
L 1197 4147 
L 1197 3200 
L 2003 3200 
L 2003 2763 
L 1197 2763 
L 1197 959 
Q 1197 638 1306 500 
Q 1416 363 1669 363 
Q 1863 363 2003 469 
L 2003 31 
z
" transform="scale(0.015625)"/>
       <path id="SegoeUI-66" d="M 2100 4288 
Q 1950 4372 1759 4372 
Q 1222 4372 1222 3694 
L 1222 3200 
L 1972 3200 
L 1972 2763 
L 1222 2763 
L 1222 0 
L 713 0 
L 713 2763 
L 166 2763 
L 166 3200 
L 713 3200 
L 713 3719 
Q 713 4222 1003 4514 
Q 1294 4806 1728 4806 
Q 1963 4806 2100 4750 
L 2100 4288 
z
" transform="scale(0.015625)"/>
       <path id="SegoeUI-75" d="M 3106 0 
L 2594 0 
L 2594 506 
L 2581 506 
Q 2263 -75 1594 -75 
Q 450 -75 450 1288 
L 450 3200 
L 959 3200 
L 959 1369 
Q 959 356 1734 356 
Q 2109 356 2351 632 
Q 2594 909 2594 1356 
L 2594 3200 
L 3106 3200 
L 3106 0 
z
" transform="scale(0.015625)"/>
       <path id="SegoeUI-6e" d="M 3175 0 
L 2663 0 
L 2663 1825 
Q 2663 2844 1919 2844 
Q 1534 2844 1282 2555 
Q 1031 2266 1031 1825 
L 1031 0 
L 519 0 
L 519 3200 
L 1031 3200 
L 1031 2669 
L 1044 2669 
Q 1406 3275 2094 3275 
Q 2619 3275 2897 2936 
Q 3175 2597 3175 1956 
L 3175 0 
z
" transform="scale(0.015625)"/>
      </defs>
      <use xlink:href="#SegoeUI-43"/>
      <use xlink:href="#SegoeUI-61" transform="translate(61.914062 0)"/>
      <use xlink:href="#SegoeUI-72" transform="translate(112.792969 0)"/>
      <use xlink:href="#SegoeUI-64" transform="translate(146.183594 0)"/>
      <use xlink:href="#SegoeUI-73" transform="translate(205.070312 0)"/>
      <use xlink:href="#SegoeUI-20" transform="translate(247.501953 0)"/>
      <use xlink:href="#SegoeUI-74" transform="translate(274.894531 0)"/>
      <use xlink:href="#SegoeUI-6f" transform="translate(308.03125 0)"/>
      <use xlink:href="#SegoeUI-20" transform="translate(366.625 0)"/>
      <use xlink:href="#SegoeUI-66" transform="translate(394.017578 0)"/>
      <use xlink:href="#SegoeUI-6f" transform="translate(425.316406 0)"/>
      <use xlink:href="#SegoeUI-75" transform="translate(483.910156 0)"/>
      <use xlink:href="#SegoeUI-6e" transform="translate(540.501953 0)"/>
      <use xlink:href="#SegoeUI-64" transform="translate(597.09375 0)"/>
      <use xlink:href="#SegoeUI-61" transform="translate(655.980469 0)"/>
      <use xlink:href="#SegoeUI-74" transform="translate(706.859375 0)"/>
      <use xlink:href="#SegoeUI-69" transform="translate(740.746094 0)"/>
      <use xlink:href="#SegoeUI-6f" transform="translate(764.964844 0)"/>
      <use xlink:href="#SegoeUI-6e" transform="translate(823.558594 0)"/>
     </g>
    </g>
   </g>
   <g id="line2d_29">
    <path d="M 35.557813 160.133161 
L 437.317813 160.133161 
" clip-path="url(#p3c938cc222)" style="fill: none; stroke-dasharray: 3.7,1.6; stroke-dashoffset: 0; stroke: #898781; stroke-opacity: 0.9"/>
   </g>
   <g id="line2d_30">
    <path d="M 35.557813 119.856238 
L 437.317813 119.856238 
" clip-path="url(#p3c938cc222)" style="fill: none; stroke-dasharray: 3.7,1.6; stroke-dashoffset: 0; stroke: #898781; stroke-opacity: 0.9"/>
   </g>
   <g id="line2d_31">
    <path d="M 35.557813 174.517776 
L 437.317813 174.517776 
" clip-path="url(#p3c938cc222)" style="fill: none; stroke-dasharray: 3.7,1.6; stroke-dashoffset: 0; stroke: #898781; stroke-opacity: 0.9"/>
   </g>
   <g id="line2d_32">
    <path d="M 35.557813 109.384238 
L 437.317813 109.384238 
" clip-path="url(#p3c938cc222)" style="fill: none; stroke-dasharray: 3.7,1.6; stroke-dashoffset: 0; stroke: #898781; stroke-opacity: 0.9"/>
   </g>
   <g id="line2d_33">
    <path d="M 35.557813 154.724546 
L 37.576707 175.438392 
L 39.595601 189.247623 
L 41.614496 196.152238 
L 43.63339 165.081469 
L 45.652285 137.463007 
L 47.671179 140.915315 
L 49.690074 99.487623 
L 51.708968 171.986084 
L 53.727863 175.438392 
L 55.746757 199.604546 
L 57.765652 196.152238 
L 59.784546 158.176853 
L 61.803441 192.69993 
L 63.822335 147.81993 
L 65.84123 168.533776 
L 67.860124 144.367623 
L 69.879019 165.081469 
L 71.897913 154.724546 
L 73.916807 182.343007 
L 75.935702 171.986084 
L 77.954596 189.247623 
L 79.973491 99.487623 
L 81.992385 182.343007 
L 84.01128 192.69993 
L 86.030174 182.343007 
L 88.049069 154.724546 
L 90.067963 171.986084 
L 92.086858 165.081469 
L 94.105752 182.343007 
L 96.124647 185.795315 
L 98.143541 113.296853 
L 100.162436 137.463007 
L 102.18133 203.056853 
L 104.200225 165.081469 
L 106.219119 192.69993 
L 108.238014 178.8907 
L 110.256908 182.343007 
L 112.275802 175.438392 
L 114.294697 151.272238 
L 116.313591 168.533776 
L 118.332486 144.367623 
L 120.35138 175.438392 
L 122.370275 185.795315 
L 124.389169 182.343007 
L 126.408064 82.226084 
L 128.426958 178.8907 
L 130.445853 175.438392 
L 132.464747 137.463007 
L 134.483642 185.795315 
L 136.502536 178.8907 
L 138.521431 178.8907 
L 140.540325 123.653776 
L 142.55922 175.438392 
L 144.578114 137.463007 
L 146.597008 123.653776 
L 148.615903 196.152238 
L 150.634797 161.629161 
L 152.653692 165.081469 
L 154.672586 147.81993 
L 156.691481 185.795315 
L 160.72927 199.604546 
L 162.748164 203.056853 
L 164.767059 199.604546 
L 166.785953 147.81993 
L 168.804848 168.533776 
L 170.823742 134.0107 
L 172.842637 154.724546 
L 174.861531 209.961469 
L 176.880426 178.8907 
L 178.89932 199.604546 
L 180.918215 154.724546 
L 182.937109 171.986084 
L 184.956003 89.1307 
L 186.974898 203.056853 
L 188.993792 175.438392 
L 191.012687 206.509161 
L 193.031581 168.533776 
L 195.050476 171.986084 
L 197.06937 130.558392 
L 199.088265 154.724546 
L 201.107159 189.247623 
L 203.126054 147.81993 
L 205.144948 165.081469 
L 207.163843 96.035315 
L 209.182737 182.343007 
L 211.201632 171.986084 
L 213.220526 185.795315 
L 215.239421 144.367623 
L 217.258315 175.438392 
L 219.277209 182.343007 
L 221.296104 192.69993 
L 223.314998 199.604546 
L 225.333893 120.201469 
L 227.352787 154.724546 
L 229.371682 192.69993 
L 231.390576 175.438392 
L 233.409471 154.724546 
L 235.428365 175.438392 
L 237.44726 175.438392 
L 239.466154 158.176853 
L 241.485049 182.343007 
L 243.503943 161.629161 
L 245.522838 158.176853 
L 247.541732 171.986084 
L 249.560627 203.056853 
L 251.579521 154.724546 
L 253.598416 196.152238 
L 255.61731 116.749161 
L 257.636204 127.106084 
L 259.655099 189.247623 
L 261.673993 185.795315 
L 263.692888 158.176853 
L 265.711782 182.343007 
L 267.730677 178.8907 
L 269.749571 109.844546 
L 271.768466 127.106084 
L 273.78736 196.152238 
L 275.806255 189.247623 
L 277.825149 185.795315 
L 279.844044 168.533776 
L 281.862938 175.438392 
L 283.881833 178.8907 
L 285.900727 130.558392 
L 287.919622 189.247623 
L 289.938516 175.438392 
L 291.95741 192.69993 
L 293.976305 168.533776 
L 295.995199 161.629161 
L 298.014094 189.247623 
L 300.032988 203.056853 
L 302.051883 182.343007 
L 304.070777 192.69993 
L 306.089672 178.8907 
L 308.108566 178.8907 
L 310.127461 161.629161 
L 312.146355 123.653776 
L 314.16525 151.272238 
L 318.203039 171.986084 
L 320.221933 185.795315 
L 322.240828 134.0107 
L 324.259722 196.152238 
L 326.278617 182.343007 
L 328.297511 158.176853 
L 330.316405 196.152238 
L 332.3353 209.961469 
L 334.354194 185.795315 
L 336.373089 175.438392 
L 338.391983 185.795315 
L 340.410878 120.201469 
L 342.429772 175.438392 
L 344.448667 168.533776 
L 346.467561 144.367623 
L 348.486456 127.106084 
L 350.50535 178.8907 
L 352.524245 196.152238 
L 354.543139 134.0107 
L 356.562034 189.247623 
L 358.580928 168.533776 
L 360.599823 182.343007 
L 362.618717 175.438392 
L 364.637611 196.152238 
L 366.656506 168.533776 
L 368.6754 192.69993 
L 370.694295 168.533776 
L 372.713189 178.8907 
L 374.732084 196.152238 
L 376.750978 189.247623 
L 378.769873 171.986084 
L 380.788767 175.438392 
L 382.807662 196.152238 
L 384.826556 168.533776 
L 386.845451 182.343007 
L 388.864345 185.795315 
L 390.88324 158.176853 
L 392.902134 158.176853 
L 394.921029 189.247623 
L 396.939923 189.247623 
L 398.958818 192.69993 
L 400.977712 168.533776 
L 402.996606 192.69993 
L 405.015501 178.8907 
L 407.034395 199.604546 
L 409.05329 196.152238 
L 411.072184 206.509161 
L 413.091079 61.512238 
L 415.109973 171.986084 
L 417.128868 203.056853 
L 419.147762 178.8907 
L 421.166657 185.795315 
L 423.185551 168.533776 
L 425.204446 189.247623 
L 427.22334 168.533776 
L 429.242235 165.081469 
L 431.261129 182.343007 
L 433.280024 158.176853 
L 435.298918 182.343007 
L 437.317813 199.604546 
L 437.317813 199.604546 
" clip-path="url(#p3c938cc222)" style="fill: none; stroke: #2a78d6; stroke-opacity: 0.25; stroke-linecap: square"/>
   </g>
   <g id="line2d_34">
    <path d="M 35.557813 30.441469 
L 437.317813 30.441469 
" clip-path="url(#p3c938cc222)" style="fill: none; stroke: #c3c2b7; stroke-opacity: 0.8; stroke-linecap: square"/>
   </g>
   <g id="patch_3">
    <path d="M 35.557813 209.961469 
L 35.557813 21.465469 
" style="fill: none; stroke: #c3c2b7; stroke-width: 0.8; stroke-linejoin: miter; stroke-linecap: square"/>
   </g>
   <g id="patch_4">
    <path d="M 35.557813 209.961469 
L 437.317813 209.961469 
" style="fill: none; stroke: #c3c2b7; stroke-width: 0.8; stroke-linejoin: miter; stroke-linecap: square"/>
   </g>
   <g id="line2d_35">
    <path d="M 35.557813 154.724546 
L 37.576707 165.081469 
L 39.595601 173.136853 
L 41.614496 178.8907 
L 43.63339 176.128853 
L 45.652285 169.684546 
L 47.671179 165.574656 
L 49.690074 157.313776 
L 53.727863 160.593469 
L 55.746757 164.13993 
L 57.765652 166.807623 
L 59.784546 166.143717 
L 61.803441 168.04059 
L 63.822335 166.692546 
L 65.84123 166.807623 
L 67.860124 165.487623 
L 69.879019 165.465058 
L 71.897913 164.899768 
L 75.935702 166.635007 
L 77.954596 167.325469 
L 79.973491 162.837469 
L 81.992385 162.147007 
L 84.01128 163.52793 
L 86.030174 165.77193 
L 88.049069 166.462392 
L 90.067963 170.087315 
L 92.086858 169.742084 
L 94.105752 170.087315 
L 96.124647 169.396853 
L 98.143541 165.254084 
L 100.162436 164.218392 
L 102.18133 164.736238 
L 104.200225 165.599315 
L 106.219119 166.807623 
L 108.238014 168.533776 
L 110.256908 169.396853 
L 112.275802 170.432546 
L 114.294697 168.879007 
L 116.313591 168.706392 
L 118.332486 166.462392 
L 120.35138 170.25993 
L 122.370275 170.432546 
L 124.389169 169.9147 
L 126.408064 164.908853 
L 128.426958 166.117161 
L 130.445853 166.289776 
L 132.464747 164.908853 
L 134.483642 165.081469 
L 136.502536 164.736238 
L 138.521431 168.01593 
L 140.540325 167.325469 
L 144.578114 164.563623 
L 146.597008 161.111315 
L 148.615903 161.974392 
L 150.634797 160.9387 
L 152.653692 160.420853 
L 154.672586 160.248238 
L 156.691481 161.111315 
L 158.710375 163.52793 
L 160.72927 164.736238 
L 164.767059 166.462392 
L 166.785953 169.742084 
L 168.804848 169.224238 
L 170.823742 167.152853 
L 172.842637 168.01593 
L 174.861531 169.224238 
L 176.880426 169.224238 
L 178.89932 170.25993 
L 180.918215 171.813469 
L 182.937109 171.640853 
L 184.956003 169.224238 
L 186.974898 173.194392 
L 188.993792 172.1587 
L 191.012687 174.4027 
L 193.031581 174.575315 
L 195.050476 175.783623 
L 197.06937 173.021776 
L 199.088265 171.123007 
L 201.107159 170.605161 
L 203.126054 167.843315 
L 205.144948 166.117161 
L 207.163843 163.52793 
L 209.182737 164.218392 
L 211.201632 166.117161 
L 213.220526 167.6707 
L 215.239421 164.391007 
L 217.258315 164.218392 
L 219.277209 163.355315 
L 221.296104 165.254084 
L 223.314998 166.635007 
L 225.333893 168.188546 
L 227.352787 165.77193 
L 229.371682 166.635007 
L 231.390576 165.081469 
L 233.409471 164.391007 
L 235.428365 164.563623 
L 237.44726 166.807623 
L 239.466154 166.980238 
L 241.485049 166.635007 
L 243.503943 167.325469 
L 245.522838 166.980238 
L 247.541732 170.777776 
L 249.560627 171.813469 
L 251.579521 170.950392 
L 253.598416 171.468238 
L 255.61731 170.087315 
L 257.636204 167.6707 
L 259.655099 168.01593 
L 261.673993 167.6707 
L 263.692888 165.599315 
L 265.711782 168.706392 
L 267.730677 169.9147 
L 269.749571 165.77193 
L 271.768466 163.355315 
L 273.78736 165.4267 
L 275.806255 166.117161 
L 279.844044 167.152853 
L 281.862938 166.807623 
L 283.881833 167.6707 
L 285.900727 166.289776 
L 287.919622 167.152853 
L 289.938516 165.77193 
L 291.95741 167.6707 
L 293.976305 166.289776 
L 295.995199 168.533776 
L 298.014094 171.640853 
L 300.032988 172.331315 
L 302.051883 172.1587 
L 304.070777 173.884853 
L 306.089672 173.712238 
L 308.108566 173.712238 
L 310.127461 176.301469 
L 312.146355 176.128853 
L 314.16525 173.884853 
L 316.184144 172.50393 
L 318.203039 171.813469 
L 320.221933 172.676546 
L 322.240828 170.605161 
L 324.259722 171.468238 
L 326.278617 174.057469 
L 328.297511 172.50393 
L 330.316405 173.539623 
L 334.354194 175.265776 
L 336.373089 175.956238 
L 338.391983 175.783623 
L 340.410878 171.640853 
L 342.429772 171.295623 
L 344.448667 170.087315 
L 346.467561 168.361161 
L 348.486456 165.77193 
L 350.50535 166.635007 
L 352.524245 170.25993 
L 354.543139 169.396853 
L 356.562034 170.777776 
L 360.599823 170.432546 
L 362.618717 172.50393 
L 364.637611 172.50393 
L 366.656506 171.813469 
L 368.6754 173.539623 
L 370.694295 172.1587 
L 372.713189 170.605161 
L 374.732084 171.123007 
L 376.750978 171.813469 
L 378.769873 171.123007 
L 380.788767 173.884853 
L 382.807662 174.920546 
L 384.826556 174.920546 
L 386.845451 176.819315 
L 388.864345 179.753776 
L 390.88324 178.718084 
L 392.902134 176.819315 
L 394.921029 179.581161 
L 396.939923 179.581161 
L 398.958818 180.789469 
L 400.977712 180.099007 
L 402.996606 180.962084 
L 405.015501 180.099007 
L 407.034395 181.652546 
L 409.05329 181.825161 
L 411.072184 183.72393 
L 413.091079 177.855007 
L 415.109973 176.6467 
L 417.128868 177.337161 
L 419.147762 177.682392 
L 421.166657 178.200238 
L 423.185551 176.819315 
L 425.204446 177.855007 
L 427.22334 177.164546 
L 429.242235 176.128853 
L 431.261129 177.337161 
L 433.280024 177.337161 
L 435.298918 176.99193 
L 437.317813 177.509776 
L 437.317813 177.509776 
" clip-path="url(#p3c938cc222)" style="fill: none; stroke: #2a78d6; stroke-width: 2; stroke-linecap: square"/>
   </g>
   <g id="text_17">
    <!-- all 52 -->
    <g style="fill: #898781" transform="translate(37.557813 40.441469) scale(0.07 -0.07)">
     <defs>
      <path id="SegoeUI-6c" d="M 1031 0 
L 519 0 
L 519 4738 
L 1031 4738 
L 1031 0 
z
" transform="scale(0.015625)"/>
     </defs>
     <use xlink:href="#SegoeUI-61"/>
     <use xlink:href="#SegoeUI-6c" transform="translate(50.878906 0)"/>
     <use xlink:href="#SegoeUI-6c" transform="translate(75.097656 0)"/>
     <use xlink:href="#SegoeUI-20" transform="translate(99.316406 0)"/>
     <use xlink:href="#SegoeUI-35" transform="translate(126.708984 0)"/>
     <use xlink:href="#SegoeUI-32" transform="translate(180.615234 0)"/>
    </g>
   </g>
   <g id="text_18">
    <!-- GreedyLookahead(1) -->
    <g style="fill: #898781" transform="translate(443.317813 176.285276) scale(0.07 -0.07)">
     <defs>
      <path id="SegoeUI-47" d="M 3938 306 
Q 3263 -75 2438 -75 
Q 1478 -75 886 544 
Q 294 1163 294 2181 
Q 294 3222 951 3889 
Q 1609 4556 2619 4556 
Q 3350 4556 3847 4319 
L 3847 3738 
Q 3303 4081 2559 4081 
Q 1806 4081 1325 3562 
Q 844 3044 844 2219 
Q 844 1369 1291 883 
Q 1738 397 2503 397 
Q 3028 397 3413 606 
L 3413 1863 
L 2431 1863 
L 2431 2338 
L 3938 2338 
L 3938 306 
z
" transform="scale(0.015625)"/>
      <path id="SegoeUI-79" d="M 3066 3200 
L 1594 -513 
Q 1200 -1506 488 -1506 
Q 288 -1506 153 -1466 
L 153 -1006 
Q 319 -1063 456 -1063 
Q 844 -1063 1038 -600 
L 1294 6 
L 44 3200 
L 613 3200 
L 1478 738 
Q 1494 691 1544 494 
L 1563 494 
Q 1578 569 1625 731 
L 2534 3200 
L 3066 3200 
z
" transform="scale(0.015625)"/>
      <path id="SegoeUI-4c" d="M 2913 0 
L 588 0 
L 588 4481 
L 1113 4481 
L 1113 475 
L 2913 475 
L 2913 0 
z
" transform="scale(0.015625)"/>
      <path id="SegoeUI-6b" d="M 3175 0 
L 2456 0 
L 1044 1538 
L 1031 1538 
L 1031 0 
L 519 0 
L 519 4738 
L 1031 4738 
L 1031 1734 
L 1044 1734 
L 2388 3200 
L 3059 3200 
L 1575 1656 
L 3175 0 
z
" transform="scale(0.015625)"/>
      <path id="SegoeUI-68" d="M 3175 0 
L 2663 0 
L 2663 1844 
Q 2663 2844 1919 2844 
Q 1544 2844 1287 2555 
Q 1031 2266 1031 1813 
L 1031 0 
L 519 0 
L 519 4738 
L 1031 4738 
L 1031 2669 
L 1044 2669 
Q 1413 3275 2094 3275 
Q 3175 3275 3175 1972 
L 3175 0 
z
" transform="scale(0.015625)"/>
      <path id="SegoeUI-28" d="M 1863 -1019 
L 1406 -1019 
Q 438 88 438 1709 
Q 438 3338 1406 4481 
L 1869 4481 
Q 888 3294 888 1716 
Q 888 150 1863 -1019 
z
" transform="scale(0.015625)"/>
      <path id="SegoeUI-29" d="M 531 -1019 
L 75 -1019 
Q 1050 150 1050 1716 
Q 1050 3294 69 4481 
L 531 4481 
Q 1506 3338 1506 1709 
Q 1506 88 531 -1019 
z
" transform="scale(0.015625)"/>
     </defs>
     <use xlink:href="#SegoeUI-47"/>
     <use xlink:href="#SegoeUI-72" transform="translate(68.603516 0)"/>
     <use xlink:href="#SegoeUI-65" transform="translate(101.994141 0)"/>
     <use xlink:href="#SegoeUI-65" transform="translate(154.289062 0)"/>
     <use xlink:href="#SegoeUI-64" transform="translate(206.583984 0)"/>
     <use xlink:href="#SegoeUI-79" transform="translate(265.470703 0)"/>
     <use xlink:href="#SegoeUI-4c" transform="translate(313.859375 0)"/>
     <use xlink:href="#SegoeUI-6f" transform="translate(360.929688 0)"/>
     <use xlink:href="#SegoeUI-6f" transform="translate(419.523438 0)"/>
     <use xlink:href="#SegoeUI-6b" transform="translate(478.117188 0)"/>
     <use xlink:href="#SegoeUI-61" transform="translate(527.824219 0)"/>
     <use xlink:href="#SegoeUI-68" transform="translate(578.703125 0)"/>
     <use xlink:href="#SegoeUI-65" transform="translate(635.294922 0)"/>
     <use xlink:href="#SegoeUI-61" transform="translate(687.589844 0)"/>
     <use xlink:href="#SegoeUI-64" transform="translate(738.46875 0)"/>
     <use xlink:href="#SegoeUI-28" transform="translate(797.355469 0)"/>
     <use xlink:href="#SegoeUI-31" transform="translate(827.53125 0)"/>
     <use xlink:href="#SegoeUI-29" transform="translate(881.4375 0)"/>
    </g>
   </g>
   <g id="text_19">
    <!-- Random -->
    <g style="fill: #898781" transform="translate(443.317813 161.919255) scale(0.07 -0.07)">
     <defs>
      <path id="SegoeUI-52" d="M 3800 0 
L 3175 0 
L 2425 1256 
Q 2322 1431 2225 1554 
Q 2128 1678 2026 1756 
Q 1925 1834 1808 1870 
Q 1691 1906 1544 1906 
L 1113 1906 
L 1113 0 
L 588 0 
L 588 4481 
L 1925 4481 
Q 2219 4481 2467 4407 
Q 2716 4334 2898 4184 
Q 3081 4034 3184 3811 
Q 3288 3588 3288 3288 
Q 3288 3053 3217 2858 
Q 3147 2663 3017 2509 
Q 2888 2356 2705 2248 
Q 2522 2141 2294 2081 
L 2294 2069 
Q 2406 2019 2489 1955 
Q 2572 1891 2647 1803 
Q 2722 1716 2795 1605 
Q 2869 1494 2959 1347 
L 3800 0 
z
M 1113 4006 
L 1113 2381 
L 1825 2381 
Q 2022 2381 2189 2440 
Q 2356 2500 2478 2611 
Q 2600 2722 2669 2883 
Q 2738 3044 2738 3244 
Q 2738 3603 2505 3804 
Q 2272 4006 1831 4006 
L 1113 4006 
z
" transform="scale(0.015625)"/>
      <path id="SegoeUI-6d" d="M 5063 0 
L 4550 0 
L 4550 1838 
Q 4550 2369 4386 2606 
Q 4222 2844 3834 2844 
Q 3506 2844 3276 2544 
Q 3047 2244 3047 1825 
L 3047 0 
L 2534 0 
L 2534 1900 
Q 2534 2844 1806 2844 
Q 1469 2844 1250 2561 
Q 1031 2278 1031 1825 
L 1031 0 
L 519 0 
L 519 3200 
L 1031 3200 
L 1031 2694 
L 1044 2694 
Q 1384 3275 2038 3275 
Q 2366 3275 2609 3092 
Q 2853 2909 2944 2613 
Q 3300 3275 4006 3275 
Q 5063 3275 5063 1972 
L 5063 0 
z
" transform="scale(0.015625)"/>
     </defs>
     <use xlink:href="#SegoeUI-52"/>
     <use xlink:href="#SegoeUI-61" transform="translate(59.814453 0)"/>
     <use xlink:href="#SegoeUI-6e" transform="translate(110.693359 0)"/>
     <use xlink:href="#SegoeUI-64" transform="translate(167.285156 0)"/>
     <use xlink:href="#SegoeUI-6f" transform="translate(226.171875 0)"/>
     <use xlink:href="#SegoeUI-6d" transform="translate(284.765625 0)"/>
    </g>
   </g>
   <g id="text_20">
    <!-- Heuristic -->
    <g style="fill: #898781" transform="translate(443.317813 121.642332) scale(0.07 -0.07)">
     <defs>
      <path id="SegoeUI-48" d="M 3956 0 
L 3431 0 
L 3431 2044 
L 1113 2044 
L 1113 0 
L 588 0 
L 588 4481 
L 1113 4481 
L 1113 2516 
L 3431 2516 
L 3431 4481 
L 3956 4481 
L 3956 0 
z
" transform="scale(0.015625)"/>
      <path id="SegoeUI-63" d="M 2700 147 
Q 2331 -75 1825 -75 
Q 1141 -75 720 370 
Q 300 816 300 1525 
Q 300 2316 753 2795 
Q 1206 3275 1963 3275 
Q 2384 3275 2706 3119 
L 2706 2594 
Q 2350 2844 1944 2844 
Q 1453 2844 1139 2492 
Q 825 2141 825 1569 
Q 825 1006 1120 681 
Q 1416 356 1913 356 
Q 2331 356 2700 634 
L 2700 147 
z
" transform="scale(0.015625)"/>
     </defs>
     <use xlink:href="#SegoeUI-48"/>
     <use xlink:href="#SegoeUI-65" transform="translate(70.996094 0)"/>
     <use xlink:href="#SegoeUI-75" transform="translate(123.291016 0)"/>
     <use xlink:href="#SegoeUI-72" transform="translate(179.882812 0)"/>
     <use xlink:href="#SegoeUI-69" transform="translate(214.648438 0)"/>
     <use xlink:href="#SegoeUI-73" transform="translate(238.867188 0)"/>
     <use xlink:href="#SegoeUI-74" transform="translate(281.298828 0)"/>
     <use xlink:href="#SegoeUI-69" transform="translate(315.185547 0)"/>
     <use xlink:href="#SegoeUI-63" transform="translate(339.404297 0)"/>
    </g>
   </g>
   <g id="text_21">
    <!-- MCTS(20) -->
    <g style="fill: #898781" transform="translate(443.317813 111.170332) scale(0.07 -0.07)">
     <defs>
      <path id="SegoeUI-4d" d="M 5156 0 
L 4634 0 
L 4634 3006 
Q 4634 3363 4678 3878 
L 4666 3878 
Q 4591 3575 4531 3444 
L 3000 0 
L 2744 0 
L 1216 3419 
Q 1150 3569 1081 3878 
L 1069 3878 
Q 1094 3609 1094 3000 
L 1094 0 
L 588 0 
L 588 4481 
L 1281 4481 
L 2656 1356 
Q 2816 997 2863 819 
L 2881 819 
Q 3016 1188 3097 1369 
L 4500 4481 
L 5156 4481 
L 5156 0 
z
" transform="scale(0.015625)"/>
      <path id="SegoeUI-54" d="M 3238 4006 
L 1944 4006 
L 1944 0 
L 1419 0 
L 1419 4006 
L 128 4006 
L 128 4481 
L 3238 4481 
L 3238 4006 
z
" transform="scale(0.015625)"/>
      <path id="SegoeUI-53" d="M 378 181 
L 378 800 
Q 484 706 632 631 
Q 781 556 945 504 
Q 1109 453 1275 425 
Q 1441 397 1581 397 
Q 2066 397 2305 576 
Q 2544 756 2544 1094 
Q 2544 1275 2464 1409 
Q 2384 1544 2243 1655 
Q 2103 1766 1911 1867 
Q 1719 1969 1497 2081 
Q 1263 2200 1059 2322 
Q 856 2444 706 2591 
Q 556 2738 470 2923 
Q 384 3109 384 3359 
Q 384 3666 518 3892 
Q 653 4119 872 4266 
Q 1091 4413 1370 4484 
Q 1650 4556 1941 4556 
Q 2603 4556 2906 4397 
L 2906 3806 
Q 2509 4081 1888 4081 
Q 1716 4081 1544 4045 
Q 1372 4009 1237 3928 
Q 1103 3847 1018 3719 
Q 934 3591 934 3406 
Q 934 3234 998 3109 
Q 1063 2984 1188 2881 
Q 1313 2778 1492 2681 
Q 1672 2584 1906 2469 
Q 2147 2350 2362 2219 
Q 2578 2088 2740 1928 
Q 2903 1769 2998 1575 
Q 3094 1381 3094 1131 
Q 3094 800 2964 570 
Q 2834 341 2614 197 
Q 2394 53 2106 -11 
Q 1819 -75 1500 -75 
Q 1394 -75 1237 -58 
Q 1081 -41 918 -8 
Q 756 25 611 73 
Q 466 122 378 181 
z
" transform="scale(0.015625)"/>
     </defs>
     <use xlink:href="#SegoeUI-4d"/>
     <use xlink:href="#SegoeUI-43" transform="translate(89.794922 0)"/>
     <use xlink:href="#SegoeUI-54" transform="translate(151.708984 0)"/>
     <use xlink:href="#SegoeUI-53" transform="translate(204.101562 0)"/>
     <use xlink:href="#SegoeUI-28" transform="translate(257.226562 0)"/>
     <use xlink:href="#SegoeUI-32" transform="translate(287.402344 0)"/>
     <use xlink:href="#SegoeUI-30" transform="translate(341.308594 0)"/>
     <use xlink:href="#SegoeUI-29" transform="translate(395.214844 0)"/>
    </g>
   </g>
   <g id="text_22">
    <!-- Cards to foundation per training episode (exploring) -->
    <g style="fill: #0b0b0b" transform="translate(105.774141 15.465469) scale(0.11 -0.11)">
     <defs>
      <path id="SegoeUI-Semibold-43" d="M 3678 188 
Q 3172 -75 2419 -75 
Q 1444 -75 856 540 
Q 269 1156 269 2156 
Q 269 3231 930 3893 
Q 1591 4556 2600 4556 
Q 3250 4556 3678 4372 
L 3678 3634 
Q 3225 3903 2678 3903 
Q 1950 3903 1498 3437 
Q 1047 2972 1047 2194 
Q 1047 1453 1469 1014 
Q 1891 575 2578 575 
Q 3213 575 3678 875 
L 3678 188 
z
" transform="scale(0.015625)"/>
      <path id="SegoeUI-Semibold-61" d="M 2928 0 
L 2225 0 
L 2225 500 
L 2213 500 
Q 1881 -75 1241 -75 
Q 769 -75 501 181 
Q 234 438 234 859 
Q 234 1766 1278 1916 
L 2228 2050 
Q 2228 2734 1578 2734 
Q 1006 2734 547 2341 
L 547 2975 
Q 1053 3275 1716 3275 
Q 2928 3275 2928 2081 
L 2928 0 
z
M 2228 1572 
L 1556 1478 
Q 1244 1438 1086 1327 
Q 928 1216 928 938 
Q 928 734 1073 604 
Q 1219 475 1463 475 
Q 1794 475 2011 708 
Q 2228 941 2228 1294 
L 2228 1572 
z
" transform="scale(0.015625)"/>
      <path id="SegoeUI-Semibold-72" d="M 2328 2509 
Q 2197 2613 1950 2613 
Q 1628 2613 1412 2322 
Q 1197 2031 1197 1531 
L 1197 0 
L 472 0 
L 472 3200 
L 1197 3200 
L 1197 2541 
L 1209 2541 
Q 1316 2878 1536 3067 
Q 1756 3256 2028 3256 
Q 2225 3256 2328 3197 
L 2328 2509 
z
" transform="scale(0.015625)"/>
      <path id="SegoeUI-Semibold-64" d="M 3381 0 
L 2656 0 
L 2656 544 
L 2644 544 
Q 2294 -75 1566 -75 
Q 975 -75 620 354 
Q 266 784 266 1525 
Q 266 2319 658 2797 
Q 1050 3275 1703 3275 
Q 2350 3275 2644 2756 
L 2656 2756 
L 2656 4738 
L 3381 4738 
L 3381 0 
z
M 2666 1463 
L 2666 1881 
Q 2666 2222 2444 2459 
Q 2222 2697 1878 2697 
Q 1472 2697 1239 2394 
Q 1006 2091 1006 1553 
Q 1006 1066 1229 783 
Q 1453 500 1831 500 
Q 2203 500 2434 773 
Q 2666 1047 2666 1463 
z
" transform="scale(0.015625)"/>
      <path id="SegoeUI-Semibold-73" d="M 272 100 
L 272 772 
Q 678 463 1169 463 
Q 1825 463 1825 850 
Q 1825 959 1769 1036 
Q 1713 1113 1617 1172 
Q 1522 1231 1392 1278 
Q 1263 1325 1103 1384 
Q 906 1463 748 1550 
Q 591 1638 486 1748 
Q 381 1859 328 2000 
Q 275 2141 275 2328 
Q 275 2559 384 2736 
Q 494 2913 678 3033 
Q 863 3153 1097 3214 
Q 1331 3275 1581 3275 
Q 2025 3275 2375 3141 
L 2375 2506 
Q 2038 2738 1600 2738 
Q 1463 2738 1352 2709 
Q 1241 2681 1162 2631 
Q 1084 2581 1040 2511 
Q 997 2441 997 2356 
Q 997 2253 1040 2181 
Q 1084 2109 1170 2054 
Q 1256 2000 1376 1954 
Q 1497 1909 1653 1856 
Q 1859 1772 2023 1684 
Q 2188 1597 2303 1486 
Q 2419 1375 2481 1229 
Q 2544 1084 2544 884 
Q 2544 641 2431 459 
Q 2319 278 2131 159 
Q 1944 41 1698 -17 
Q 1453 -75 1181 -75 
Q 656 -75 272 100 
z
" transform="scale(0.015625)"/>
      <path id="SegoeUI-Semibold-20" transform="scale(0.015625)"/>
      <path id="SegoeUI-Semibold-74" d="M 2159 34 
Q 1947 -72 1600 -72 
Q 669 -72 669 822 
L 669 2631 
L 134 2631 
L 134 3200 
L 669 3200 
L 669 3941 
L 1394 4147 
L 1394 3200 
L 2159 3200 
L 2159 2631 
L 1394 2631 
L 1394 1031 
Q 1394 747 1497 625 
Q 1600 503 1841 503 
Q 2025 503 2159 609 
L 2159 34 
z
" transform="scale(0.015625)"/>
      <path id="SegoeUI-Semibold-6f" d="M 1891 -75 
Q 1150 -75 708 373 
Q 266 822 266 1563 
Q 266 2369 727 2822 
Q 1188 3275 1969 3275 
Q 2719 3275 3137 2834 
Q 3556 2394 3556 1613 
Q 3556 847 3104 386 
Q 2653 -75 1891 -75 
z
M 1925 2697 
Q 1500 2697 1253 2400 
Q 1006 2103 1006 1581 
Q 1006 1078 1256 789 
Q 1506 500 1925 500 
Q 2353 500 2583 784 
Q 2813 1069 2813 1594 
Q 2813 2122 2583 2409 
Q 2353 2697 1925 2697 
z
" transform="scale(0.015625)"/>
      <path id="SegoeUI-Semibold-66" d="M 2281 4147 
Q 2134 4231 1947 4231 
Q 1419 4231 1419 3634 
L 1419 3200 
L 2163 3200 
L 2163 2631 
L 1422 2631 
L 1422 0 
L 697 0 
L 697 2631 
L 150 2631 
L 150 3200 
L 697 3200 
L 697 3719 
Q 697 4225 1028 4517 
Q 1359 4809 1856 4809 
Q 2125 4809 2281 4750 
L 2281 4147 
z
" transform="scale(0.015625)"/>
      <path id="SegoeUI-Semibold-75" d="M 3263 0 
L 2538 0 
L 2538 506 
L 2525 506 
Q 2209 -75 1544 -75 
Q 409 -75 409 1288 
L 409 3200 
L 1134 3200 
L 1134 1363 
Q 1134 500 1800 500 
Q 2122 500 2330 737 
Q 2538 975 2538 1359 
L 2538 3200 
L 3263 3200 
L 3263 0 
z
" transform="scale(0.015625)"/>
      <path id="SegoeUI-Semibold-6e" d="M 3322 0 
L 2597 0 
L 2597 1803 
Q 2597 2700 1963 2700 
Q 1631 2700 1415 2451 
Q 1200 2203 1200 1825 
L 1200 0 
L 472 0 
L 472 3200 
L 1200 3200 
L 1200 2669 
L 1213 2669 
Q 1572 3275 2250 3275 
Q 2772 3275 3047 2936 
Q 3322 2597 3322 1956 
L 3322 0 
z
" transform="scale(0.015625)"/>
      <path id="SegoeUI-Semibold-69" d="M 838 3872 
Q 659 3872 532 3987 
Q 406 4103 406 4281 
Q 406 4459 532 4578 
Q 659 4697 838 4697 
Q 1022 4697 1150 4578 
Q 1278 4459 1278 4281 
Q 1278 4113 1150 3992 
Q 1022 3872 838 3872 
z
M 1197 0 
L 472 0 
L 472 3200 
L 1197 3200 
L 1197 0 
z
" transform="scale(0.015625)"/>
      <path id="SegoeUI-Semibold-70" d="M 1209 472 
L 1197 472 
L 1197 -1472 
L 472 -1472 
L 472 3200 
L 1197 3200 
L 1197 2638 
L 1209 2638 
Q 1581 3275 2297 3275 
Q 2906 3275 3247 2847 
Q 3588 2419 3588 1697 
Q 3588 897 3203 415 
Q 2819 -66 2153 -66 
Q 1541 -66 1209 472 
z
M 1191 1734 
L 1191 1338 
Q 1191 988 1414 744 
Q 1638 500 1981 500 
Q 2384 500 2614 814 
Q 2844 1128 2844 1691 
Q 2844 2163 2630 2430 
Q 2416 2697 2050 2697 
Q 1663 2697 1427 2422 
Q 1191 2147 1191 1734 
z
" transform="scale(0.015625)"/>
      <path id="SegoeUI-Semibold-65" d="M 3181 1403 
L 1000 1403 
Q 1013 959 1273 718 
Q 1534 478 1991 478 
Q 2503 478 2931 784 
L 2931 200 
Q 2494 -75 1775 -75 
Q 1069 -75 667 361 
Q 266 797 266 1588 
Q 266 2334 708 2804 
Q 1150 3275 1806 3275 
Q 2463 3275 2822 2853 
Q 3181 2431 3181 1681 
L 3181 1403 
z
M 2481 1916 
Q 2478 2306 2297 2523 
Q 2116 2741 1797 2741 
Q 1484 2741 1267 2512 
Q 1050 2284 1000 1916 
L 2481 1916 
z
" transform="scale(0.015625)"/>
      <path id="SegoeUI-Semibold-67" d="M 3384 256 
Q 3384 -1506 1613 -1506 
Q 988 -1506 522 -1297 
L 522 -634 
Q 1047 -934 1519 -934 
Q 2659 -934 2659 188 
L 2659 538 
L 2647 538 
Q 2288 -75 1566 -75 
Q 981 -75 623 351 
Q 266 778 266 1497 
Q 266 2313 650 2794 
Q 1034 3275 1706 3275 
Q 2341 3275 2647 2756 
L 2659 2756 
L 2659 3200 
L 3384 3200 
L 3384 256 
z
M 2666 1466 
L 2666 1881 
Q 2666 2219 2442 2458 
Q 2219 2697 1884 2697 
Q 1472 2697 1239 2392 
Q 1006 2088 1006 1541 
Q 1006 1069 1229 786 
Q 1453 503 1822 503 
Q 2197 503 2431 773 
Q 2666 1044 2666 1466 
z
" transform="scale(0.015625)"/>
      <path id="SegoeUI-Semibold-28" d="M 2063 -1019 
L 1450 -1019 
Q 463 88 463 1709 
Q 463 3338 1450 4481 
L 2066 4481 
Q 1097 3294 1097 1716 
Q 1097 150 2063 -1019 
z
" transform="scale(0.015625)"/>
      <path id="SegoeUI-Semibold-78" d="M 3147 3200 
L 2081 1581 
L 3134 0 
L 2294 0 
L 1731 991 
Q 1678 1081 1606 1222 
L 1594 1222 
Q 1581 1194 1463 991 
L 891 0 
L 53 0 
L 1141 1569 
L 109 3200 
L 953 3200 
L 1506 2159 
Q 1569 2044 1628 1922 
L 1638 1922 
L 2353 3200 
L 3147 3200 
z
" transform="scale(0.015625)"/>
      <path id="SegoeUI-Semibold-6c" d="M 1200 0 
L 472 0 
L 472 4738 
L 1200 4738 
L 1200 0 
z
" transform="scale(0.015625)"/>
      <path id="SegoeUI-Semibold-29" d="M 678 -1019 
L 66 -1019 
Q 1034 150 1034 1716 
Q 1034 3294 63 4481 
L 681 4481 
Q 1672 3338 1672 1709 
Q 1672 88 678 -1019 
z
" transform="scale(0.015625)"/>
     </defs>
     <use xlink:href="#SegoeUI-Semibold-43"/>
     <use xlink:href="#SegoeUI-Semibold-61" transform="translate(62.109375 0)"/>
     <use xlink:href="#SegoeUI-Semibold-72" transform="translate(114.306641 0)"/>
     <use xlink:href="#SegoeUI-Semibold-64" transform="translate(150.443359 0)"/>
     <use xlink:href="#SegoeUI-Semibold-73" transform="translate(210.697266 0)"/>
     <use xlink:href="#SegoeUI-Semibold-20" transform="translate(253.8125 0)"/>
     <use xlink:href="#SegoeUI-Semibold-74" transform="translate(281.302734 0)"/>
     <use xlink:href="#SegoeUI-Semibold-6f" transform="translate(316.810547 0)"/>
     <use xlink:href="#SegoeUI-Semibold-20" transform="translate(376.527344 0)"/>
     <use xlink:href="#SegoeUI-Semibold-66" transform="translate(404.017578 0)"/>
     <use xlink:href="#SegoeUI-Semibold-6f" transform="translate(438.490234 0)"/>
     <use xlink:href="#SegoeUI-Semibold-75" transform="translate(498.207031 0)"/>
     <use xlink:href="#SegoeUI-Semibold-6e" transform="translate(556.556641 0)"/>
     <use xlink:href="#SegoeUI-Semibold-64" transform="translate(614.90625 0)"/>
     <use xlink:href="#SegoeUI-Semibold-61" transform="translate(675.160156 0)"/>
     <use xlink:href="#SegoeUI-Semibold-74" transform="translate(727.357422 0)"/>
     <use xlink:href="#SegoeUI-Semibold-69" transform="translate(763.490234 0)"/>
     <use xlink:href="#SegoeUI-Semibold-6f" transform="translate(789.613281 0)"/>
     <use xlink:href="#SegoeUI-Semibold-6e" transform="translate(849.330078 0)"/>
     <use xlink:href="#SegoeUI-Semibold-20" transform="translate(907.679688 0)"/>
     <use xlink:href="#SegoeUI-Semibold-70" transform="translate(935.169922 0)"/>
     <use xlink:href="#SegoeUI-Semibold-65" transform="translate(995.423828 0)"/>
     <use xlink:href="#SegoeUI-Semibold-72" transform="translate(1048.548828 0)"/>
     <use xlink:href="#SegoeUI-Semibold-20" transform="translate(1085.560547 0)"/>
     <use xlink:href="#SegoeUI-Semibold-74" transform="translate(1113.050781 0)"/>
     <use xlink:href="#SegoeUI-Semibold-72" transform="translate(1149.183594 0)"/>
     <use xlink:href="#SegoeUI-Semibold-61" transform="translate(1186.195312 0)"/>
     <use xlink:href="#SegoeUI-Semibold-69" transform="translate(1238.392578 0)"/>
     <use xlink:href="#SegoeUI-Semibold-6e" transform="translate(1264.515625 0)"/>
     <use xlink:href="#SegoeUI-Semibold-69" transform="translate(1322.865234 0)"/>
     <use xlink:href="#SegoeUI-Semibold-6e" transform="translate(1348.988281 0)"/>
     <use xlink:href="#SegoeUI-Semibold-67" transform="translate(1407.337891 0)"/>
     <use xlink:href="#SegoeUI-Semibold-20" transform="translate(1467.591797 0)"/>
     <use xlink:href="#SegoeUI-Semibold-65" transform="translate(1495.082031 0)"/>
     <use xlink:href="#SegoeUI-Semibold-70" transform="translate(1548.207031 0)"/>
     <use xlink:href="#SegoeUI-Semibold-69" transform="translate(1608.460938 0)"/>
     <use xlink:href="#SegoeUI-Semibold-73" transform="translate(1634.583984 0)"/>
     <use xlink:href="#SegoeUI-Semibold-6f" transform="translate(1677.699219 0)"/>
     <use xlink:href="#SegoeUI-Semibold-64" transform="translate(1737.416016 0)"/>
     <use xlink:href="#SegoeUI-Semibold-65" transform="translate(1797.669922 0)"/>
     <use xlink:href="#SegoeUI-Semibold-20" transform="translate(1850.794922 0)"/>
     <use xlink:href="#SegoeUI-Semibold-28" transform="translate(1878.285156 0)"/>
     <use xlink:href="#SegoeUI-Semibold-65" transform="translate(1911.488281 0)"/>
     <use xlink:href="#SegoeUI-Semibold-78" transform="translate(1964.613281 0)"/>
     <use xlink:href="#SegoeUI-Semibold-70" transform="translate(2014.710938 0)"/>
     <use xlink:href="#SegoeUI-Semibold-6c" transform="translate(2074.964844 0)"/>
     <use xlink:href="#SegoeUI-Semibold-6f" transform="translate(2101.087891 0)"/>
     <use xlink:href="#SegoeUI-Semibold-72" transform="translate(2160.804688 0)"/>
     <use xlink:href="#SegoeUI-Semibold-69" transform="translate(2197.816406 0)"/>
     <use xlink:href="#SegoeUI-Semibold-6e" transform="translate(2223.939453 0)"/>
     <use xlink:href="#SegoeUI-Semibold-67" transform="translate(2282.289062 0)"/>
     <use xlink:href="#SegoeUI-Semibold-29" transform="translate(2342.542969 0)"/>
    </g>
   </g>
   <g id="legend_1">
    <g id="line2d_36">
     <path d="M 42.757813 31.787969 
L 50.757813 31.787969 
L 58.757813 31.787969 
" style="fill: none; stroke: #2a78d6; stroke-width: 2; stroke-linecap: square"/>
    </g>
    <g id="text_23">
     <!-- Q-learning (avg 20) -->
     <g style="fill: #0b0b0b" transform="translate(65.157813 34.587969) scale(0.08 -0.08)">
      <defs>
       <path id="SegoeUI-51" d="M 2394 -75 
Q 1444 -75 866 553 
Q 294 1181 294 2188 
Q 294 3272 878 3913 
Q 1466 4556 2469 4556 
Q 3394 4556 3963 3931 
Q 4531 3306 4531 2297 
Q 4531 1200 3950 563 
Q 3813 409 3656 300 
L 4916 -603 
L 3963 -603 
L 3119 28 
Q 2788 -75 2394 -75 
z
M 2431 4081 
Q 1725 4081 1284 3572 
Q 844 3063 844 2234 
Q 844 1409 1272 900 
Q 1703 397 2394 397 
Q 3131 397 3556 878 
Q 3981 1359 3981 2225 
Q 3981 3116 3569 3597 
Q 3156 4081 2431 4081 
z
" transform="scale(0.015625)"/>
       <path id="SegoeUI-2d" d="M 2156 1581 
L 450 1581 
L 450 1984 
L 2156 1984 
L 2156 1581 
z
" transform="scale(0.015625)"/>
       <path id="SegoeUI-67" d="M 3250 256 
Q 3250 -1506 1563 -1506 
Q 969 -1506 525 -1281 
L 525 -769 
Q 1066 -1069 1556 -1069 
Q 2738 -1069 2738 188 
L 2738 538 
L 2725 538 
Q 2359 -75 1625 -75 
Q 1028 -75 664 351 
Q 300 778 300 1497 
Q 300 2313 692 2794 
Q 1084 3275 1766 3275 
Q 2413 3275 2725 2756 
L 2738 2756 
L 2738 3200 
L 3250 3200 
L 3250 256 
z
M 2738 1447 
L 2738 1919 
Q 2738 2300 2480 2572 
Q 2222 2844 1838 2844 
Q 1363 2844 1094 2498 
Q 825 2153 825 1531 
Q 825 997 1083 676 
Q 1341 356 1766 356 
Q 2197 356 2467 662 
Q 2738 969 2738 1447 
z
" transform="scale(0.015625)"/>
       <path id="SegoeUI-76" d="M 3034 3200 
L 1759 0 
L 1256 0 
L 44 3200 
L 606 3200 
L 1419 875 
Q 1509 619 1531 428 
L 1544 428 
Q 1575 669 1644 863 
L 2494 3200 
L 3034 3200 
z
" transform="scale(0.015625)"/>
      </defs>
      <use xlink:href="#SegoeUI-51"/>
      <use xlink:href="#SegoeUI-2d" transform="translate(75.390625 0)"/>
      <use xlink:href="#SegoeUI-6c" transform="translate(115.380859 0)"/>
      <use xlink:href="#SegoeUI-65" transform="translate(139.599609 0)"/>
      <use xlink:href="#SegoeUI-61" transform="translate(191.894531 0)"/>
      <use xlink:href="#SegoeUI-72" transform="translate(242.773438 0)"/>
      <use xlink:href="#SegoeUI-6e" transform="translate(277.289062 0)"/>
      <use xlink:href="#SegoeUI-69" transform="translate(333.880859 0)"/>
      <use xlink:href="#SegoeUI-6e" transform="translate(358.099609 0)"/>
      <use xlink:href="#SegoeUI-67" transform="translate(414.691406 0)"/>
      <use xlink:href="#SegoeUI-20" transform="translate(473.578125 0)"/>
      <use xlink:href="#SegoeUI-28" transform="translate(500.970703 0)"/>
      <use xlink:href="#SegoeUI-61" transform="translate(531.146484 0)"/>
      <use xlink:href="#SegoeUI-76" transform="translate(582.025391 0)"/>
      <use xlink:href="#SegoeUI-67" transform="translate(629.300781 0)"/>
      <use xlink:href="#SegoeUI-20" transform="translate(688.1875 0)"/>
      <use xlink:href="#SegoeUI-32" transform="translate(715.580078 0)"/>
      <use xlink:href="#SegoeUI-30" transform="translate(769.486328 0)"/>
      <use xlink:href="#SegoeUI-29" transform="translate(823.392578 0)"/>
     </g>
    </g>
   </g>
  </g>
 </g>
 <defs>
  <clipPath id="p3c938cc222">
   <rect x="35.557813" y="21.465469" width="401.76" height="188.496"/>
  </clipPath>
 </defs>
</svg>
