<?xml version="1.0" encoding="utf-8" standalone="no"?>
<!DOCTYPE svg PUBLIC "-//W3C//DTD SVG 1.1//EN"
  "http://www.w3.org/Graphics/SVG/1.1/DTD/svg11.dtd">
<svg xmlns:xlink="http://www.w3.org/1999/xlink" width="450.565313pt" height="222.35875pt" viewBox="0 0 450.565313 222.35875" xmlns="http://www.w3.org/2000/svg" version="1.1">
 <metadata>
  <rdf:RDF xmlns:dc="http://purl.org/dc/elements/1.1/" xmlns:cc="http://creativecommons.org/ns#" xmlns:rdf="http://www.w3.org/1999/02/22-rdf-syntax-ns#">
   <cc:Work>
    <dc:type rdf:resource="http://purl.org/dc/dcmitype/StillImage"/>
    <dc:date>2026-07-21T00:08:38.568339</dc:date>
    <dc:format>image/svg+xml</dc:format>
    <dc:creator>
     <cc:Agent>
      <dc:title>Matplotlib v3.10.9, https://matplotlib.org/</dc:title>
     </cc:Agent>
    </dc:creator>
   </cc:Work>
  </rdf:RDF>
 </metadata>
 <defs>
  <style type="text/css">*{stroke-linejoin: round; stroke-linecap: butt}</style>
 </defs>
 <g id="figure_1">
  <g id="patch_1">
   <path d="M 0 222.35875 
L 450.565313 222.35875 
L 450.565313 0 
L 0 0 
z
" style="fill: #fcfcfb"/>
  </g>
  <g id="axes_1">
   <g id="patch_2">
    <path d="M 41.605313 187.663438 
L 443.365313 187.663438 
L 443.365313 21.343437 
L 41.605313 21.343437 
z
" style="fill: #fcfcfb"/>
   </g>
   <g id="matplotlib.axis_1">
    <g id="xtick_1">
     <g id="line2d_1">
      <path d="M 41.605313 187.663438 
L 41.605313 21.343437 
" clip-path="url(#pfaf2f7565e)" style="fill: none; stroke: #e1e0d9; stroke-width: 0.6; stroke-linecap: square"/>
     </g>
     <g id="line2d_2">
      <defs>
       <path id="m08fa96e47b" d="M 0 0 
L 0 3.5 
" style="stroke: #898781; stroke-width: 0.8"/>
      </defs>
      <g>
       <use xlink:href="#m08fa96e47b" x="41.605313" y="187.663438" style="fill: #898781; stroke: #898781; stroke-width: 0.8"/>
      </g>
     </g>
     <g id="text_1">
      <!-- 0 -->
      <g style="fill: #898781" transform="translate(39.449063 200.585938) scale(0.08 -0.08)">
       <defs>
        <path id="SegoeUI-30" d="M 3188 2259 
Q 3188 1697 3086 1262 
Q 2984 828 2792 529 
Q 2600 231 2320 76 
Q 2041 -78 1684 -78 
Q 1347 -78 1083 70 
Q 819 219 637 503 
Q 456 788 362 1202 
Q 269 1616 269 2150 
Q 269 2738 367 3188 
Q 466 3638 656 3942 
Q 847 4247 1130 4401 
Q 1413 4556 1778 4556 
Q 3188 4556 3188 2259 
z
M 2663 2209 
Q 2663 4122 1753 4122 
Q 794 4122 794 2175 
Q 794 359 1734 359 
Q 2663 359 2663 2209 
z
" transform="scale(0.015625)"/>
       </defs>
       <use xlink:href="#SegoeUI-30"/>
      </g>
     </g>
    </g>
    <g id="xtick_2">
     <g id="line2d_3">
      <path d="M 92.077674 187.663438 
L 92.077674 21.343437 
" clip-path="url(#pfaf2f7565e)" style="fill: none; stroke: #e1e0d9; stroke-width: 0.6; stroke-linecap: square"/>
     </g>
     <g id="line2d_4">
      <g>
       <use xlink:href="#m08fa96e47b" x="92.077674" y="187.663438" style="fill: #898781; stroke: #898781; stroke-width: 0.8"/>
      </g>
     </g>
     <g id="text_2">
      <!-- 25 -->
      <g style="fill: #898781" transform="translate(87.765174 200.585938) scale(0.08 -0.08)">
       <defs>
        <path id="SegoeUI-32" d="M 2413 3306 
Q 2413 3513 2348 3666 
Q 2284 3819 2173 3920 
Q 2063 4022 1913 4072 
Q 1763 4122 1588 4122 
Q 1438 4122 1294 4081 
Q 1150 4041 1014 3969 
Q 878 3897 751 3797 
Q 625 3697 516 3575 
L 516 4125 
Q 731 4334 998 4445 
Q 1266 4556 1650 4556 
Q 1925 4556 2159 4476 
Q 2394 4397 2566 4244 
Q 2738 4091 2836 3866 
Q 2934 3641 2934 3350 
Q 2934 3084 2873 2868 
Q 2813 2653 2689 2462 
Q 2566 2272 2378 2097 
Q 2191 1922 1938 1741 
Q 1622 1516 1417 1356 
Q 1213 1197 1092 1058 
Q 972 919 923 780 
Q 875 641 875 459 
L 3106 459 
L 3106 0 
L 341 0 
L 341 222 
Q 341 509 403 728 
Q 466 947 609 1144 
Q 753 1341 986 1537 
Q 1219 1734 1556 1981 
Q 1800 2156 1964 2315 
Q 2128 2475 2228 2634 
Q 2328 2794 2370 2958 
Q 2413 3122 2413 3306 
z
" transform="scale(0.015625)"/>
        <path id="SegoeUI-35" d="M 3028 1369 
Q 3028 1041 2915 775 
Q 2803 509 2595 318 
Q 2388 128 2094 25 
Q 1800 -78 1441 -78 
Q 816 -78 513 109 
L 513 653 
Q 969 359 1447 359 
Q 1691 359 1886 431 
Q 2081 503 2218 631 
Q 2356 759 2429 940 
Q 2503 1122 2503 1338 
Q 2503 1775 2209 2023 
Q 1916 2272 1356 2272 
Q 1266 2272 1166 2269 
Q 1066 2266 966 2261 
Q 866 2256 770 2250 
Q 675 2244 597 2234 
L 750 4481 
L 2822 4481 
L 2822 4019 
L 1194 4019 
L 1103 2703 
Q 1203 2709 1315 2714 
Q 1428 2719 1516 2719 
Q 1872 2719 2153 2625 
Q 2434 2531 2629 2357 
Q 2825 2184 2926 1932 
Q 3028 1681 3028 1369 
z
" transform="scale(0.015625)"/>
       </defs>
       <use xlink:href="#SegoeUI-32"/>
       <use xlink:href="#SegoeUI-35" transform="translate(53.90625 0)"/>
      </g>
     </g>
    </g>
    <g id="xtick_3">
     <g id="line2d_5">
      <path d="M 142.550036 187.663438 
L 142.550036 21.343437 
" clip-path="url(#pfaf2f7565e)" style="fill: none; stroke: #e1e0d9; stroke-width: 0.6; stroke-linecap: square"/>
     </g>
     <g id="line2d_6">
      <g>
       <use xlink:href="#m08fa96e47b" x="142.550036" y="187.663438" style="fill: #898781; stroke: #898781; stroke-width: 0.8"/>
      </g>
     </g>
     <g id="text_3">
      <!-- 50 -->
      <g style="fill: #898781" transform="translate(138.237536 200.585938) scale(0.08 -0.08)">
       <use xlink:href="#SegoeUI-35"/>
       <use xlink:href="#SegoeUI-30" transform="translate(53.90625 0)"/>
      </g>
     </g>
    </g>
    <g id="xtick_4">
     <g id="line2d_7">
      <path d="M 193.022398 187.663438 
L 193.022398 21.343437 
" clip-path="url(#pfaf2f7565e)" style="fill: none; stroke: #e1e0d9; stroke-width: 0.6; stroke-linecap: square"/>
     </g>
     <g id="line2d_8">
      <g>
       <use xlink:href="#m08fa96e47b" x="193.022398" y="187.663438" style="fill: #898781; stroke: #898781; stroke-width: 0.8"/>
      </g>
     </g>
     <g id="text_4">
      <!-- 75 -->
      <g style="fill: #898781" transform="translate(188.709898 200.585938) scale(0.08 -0.08)">
       <defs>
        <path id="SegoeUI-37" d="M 3156 4184 
Q 3053 4006 2908 3740 
Q 2763 3475 2600 3144 
Q 2438 2813 2269 2431 
Q 2100 2050 1953 1644 
Q 1806 1238 1695 820 
Q 1584 403 1534 0 
L 984 0 
Q 1041 400 1158 817 
Q 1275 1234 1423 1636 
Q 1572 2038 1737 2409 
Q 1903 2781 2059 3093 
Q 2216 3406 2345 3645 
Q 2475 3884 2553 4019 
L 306 4019 
L 306 4481 
L 3156 4481 
L 3156 4184 
z
" transform="scale(0.015625)"/>
       </defs>
       <use xlink:href="#SegoeUI-37"/>
       <use xlink:href="#SegoeUI-35" transform="translate(53.90625 0)"/>
      </g>
     </g>
    </g>
    <g id="xtick_5">
     <g id="line2d_9">
      <path d="M 243.49476 187.663438 
L 243.49476 21.343437 
" clip-path="url(#pfaf2f7565e)" style="fill: none; stroke: #e1e0d9; stroke-width: 0.6; stroke-linecap: square"/>
     </g>
     <g id="line2d_10">
      <g>
       <use xlink:href="#m08fa96e47b" x="243.49476" y="187.663438" style="fill: #898781; stroke: #898781; stroke-width: 0.8"/>
      </g>
     </g>
     <g id="text_5">
      <!-- 100 -->
      <g style="fill: #898781" transform="translate(237.02601 200.585938) scale(0.08 -0.08)">
       <defs>
        <path id="SegoeUI-31" d="M 2263 0 
L 1750 0 
L 1750 3872 
Q 1691 3813 1577 3736 
Q 1463 3659 1320 3584 
Q 1178 3509 1020 3443 
Q 863 3378 713 3341 
L 713 3859 
Q 881 3906 1070 3986 
Q 1259 4066 1442 4164 
Q 1625 4263 1787 4370 
Q 1950 4478 2069 4581 
L 2263 4581 
L 2263 0 
z
" transform="scale(0.015625)"/>
       </defs>
       <use xlink:href="#SegoeUI-31"/>
       <use xlink:href="#SegoeUI-30" transform="translate(53.90625 0)"/>
       <use xlink:href="#SegoeUI-30" transform="translate(107.8125 0)"/>
      </g>
     </g>
    </g>
    <g id="xtick_6">
     <g id="line2d_11">
      <path d="M 293.967122 187.663438 
L 293.967122 21.343437 
" clip-path="url(#pfaf2f7565e)" style="fill: none; stroke: #e1e0d9; stroke-width: 0.6; stroke-linecap: square"/>
     </g>
     <g id="line2d_12">
      <g>
       <use xlink:href="#m08fa96e47b" x="293.967122" y="187.663438" style="fill: #898781; stroke: #898781; stroke-width: 0.8"/>
      </g>
     </g>
     <g id="text_6">
      <!-- 125 -->
      <g style="fill: #898781" transform="translate(287.498372 200.585938) scale(0.08 -0.08)">
       <use xlink:href="#SegoeUI-31"/>
       <use xlink:href="#SegoeUI-32" transform="translate(53.90625 0)"/>
       <use xlink:href="#SegoeUI-35" transform="translate(107.8125 0)"/>
      </g>
     </g>
    </g>
    <g id="xtick_7">
     <g id="line2d_13">
      <path d="M 344.439483 187.663438 
L 344.439483 21.343437 
" clip-path="url(#pfaf2f7565e)" style="fill: none; stroke: #e1e0d9; stroke-width: 0.6; stroke-linecap: square"/>
     </g>
     <g id="line2d_14">
      <g>
       <use xlink:href="#m08fa96e47b" x="344.439483" y="187.663438" style="fill: #898781; stroke: #898781; stroke-width: 0.8"/>
      </g>
     </g>
     <g id="text_7">
      <!-- 150 -->
      <g style="fill: #898781" transform="translate(337.970733 200.585938) scale(0.08 -0.08)">
       <use xlink:href="#SegoeUI-31"/>
       <use xlink:href="#SegoeUI-35" transform="translate(53.90625 0)"/>
       <use xlink:href="#SegoeUI-30" transform="translate(107.8125 0)"/>
      </g>
     </g>
    </g>
    <g id="xtick_8">
     <g id="line2d_15">
      <path d="M 394.911845 187.663438 
L 394.911845 21.343437 
" clip-path="url(#pfaf2f7565e)" style="fill: none; stroke: #e1e0d9; stroke-width: 0.6; stroke-linecap: square"/>
     </g>
     <g id="line2d_16">
      <g>
       <use xlink:href="#m08fa96e47b" x="394.911845" y="187.663438" style="fill: #898781; stroke: #898781; stroke-width: 0.8"/>
      </g>
     </g>
     <g id="text_8">
      <!-- 175 -->
      <g style="fill: #898781" transform="translate(388.443095 200.585938) scale(0.08 -0.08)">
       <use xlink:href="#SegoeUI-31"/>
       <use xlink:href="#SegoeUI-37" transform="translate(53.90625 0)"/>
       <use xlink:href="#SegoeUI-35" transform="translate(107.8125 0)"/>
      </g>
     </g>
    </g>
    <g id="text_9">
     <!-- Episode -->
     <g style="fill: #52514e" transform="translate(226.923047 213.08875) scale(0.09 -0.09)">
      <defs>
       <path id="SegoeUI-45" d="M 2963 0 
L 588 0 
L 588 4481 
L 2863 4481 
L 2863 4006 
L 1113 4006 
L 1113 2516 
L 2731 2516 
L 2731 2044 
L 1113 2044 
L 1113 475 
L 2963 475 
L 2963 0 
z
" transform="scale(0.015625)"/>
       <path id="SegoeUI-70" d="M 1044 463 
L 1031 463 
L 1031 -1472 
L 519 -1472 
L 519 3200 
L 1031 3200 
L 1031 2638 
L 1044 2638 
Q 1422 3275 2150 3275 
Q 2769 3275 3116 2845 
Q 3463 2416 3463 1694 
Q 3463 891 3072 408 
Q 2681 -75 2003 -75 
Q 1381 -75 1044 463 
z
M 1031 1753 
L 1031 1306 
Q 1031 909 1289 632 
Q 1547 356 1944 356 
Q 2409 356 2673 712 
Q 2938 1069 2938 1703 
Q 2938 2238 2691 2541 
Q 2444 2844 2022 2844 
Q 1575 2844 1303 2533 
Q 1031 2222 1031 1753 
z
" transform="scale(0.015625)"/>
       <path id="SegoeUI-69" d="M 781 4013 
Q 644 4013 547 4106 
Q 450 4200 450 4344 
Q 450 4488 547 4583 
Q 644 4678 781 4678 
Q 922 4678 1020 4583 
Q 1119 4488 1119 4344 
Q 1119 4206 1020 4109 
Q 922 4013 781 4013 
z
M 1031 0 
L 519 0 
L 519 3200 
L 1031 3200 
L 1031 0 
z
" transform="scale(0.015625)"/>
       <path id="SegoeUI-73" d="M 325 116 
L 325 666 
Q 744 356 1247 356 
Q 1922 356 1922 806 
Q 1922 934 1864 1023 
Q 1806 1113 1707 1181 
Q 1609 1250 1476 1304 
Q 1344 1359 1191 1419 
Q 978 1503 817 1589 
Q 656 1675 548 1783 
Q 441 1891 386 2028 
Q 331 2166 331 2350 
Q 331 2575 434 2748 
Q 538 2922 709 3039 
Q 881 3156 1101 3215 
Q 1322 3275 1556 3275 
Q 1972 3275 2300 3131 
L 2300 2613 
Q 1947 2844 1488 2844 
Q 1344 2844 1228 2811 
Q 1113 2778 1030 2718 
Q 947 2659 901 2576 
Q 856 2494 856 2394 
Q 856 2269 901 2184 
Q 947 2100 1034 2034 
Q 1122 1969 1247 1916 
Q 1372 1863 1531 1800 
Q 1744 1719 1912 1633 
Q 2081 1547 2200 1439 
Q 2319 1331 2383 1190 
Q 2447 1050 2447 856 
Q 2447 619 2342 444 
Q 2238 269 2063 153 
Q 1888 38 1659 -18 
Q 1431 -75 1181 -75 
Q 688 -75 325 116 
z
" transform="scale(0.015625)"/>
       <path id="SegoeUI-6f" d="M 1856 -75 
Q 1147 -75 723 373 
Q 300 822 300 1563 
Q 300 2369 740 2822 
Q 1181 3275 1931 3275 
Q 2647 3275 3048 2834 
Q 3450 2394 3450 1613 
Q 3450 847 3017 386 
Q 2584 -75 1856 -75 
z
M 1894 2844 
Q 1400 2844 1112 2508 
Q 825 2172 825 1581 
Q 825 1013 1115 684 
Q 1406 356 1894 356 
Q 2391 356 2658 678 
Q 2925 1000 2925 1594 
Q 2925 2194 2658 2519 
Q 2391 2844 1894 2844 
z
" transform="scale(0.015625)"/>
       <path id="SegoeUI-64" d="M 3250 0 
L 2738 0 
L 2738 544 
L 2725 544 
Q 2369 -75 1625 -75 
Q 1022 -75 661 354 
Q 300 784 300 1525 
Q 300 2319 700 2797 
Q 1100 3275 1766 3275 
Q 2425 3275 2725 2756 
L 2738 2756 
L 2738 4738 
L 3250 4738 
L 3250 0 
z
M 2738 1447 
L 2738 1919 
Q 2738 2306 2481 2575 
Q 2225 2844 1831 2844 
Q 1363 2844 1094 2500 
Q 825 2156 825 1550 
Q 825 997 1083 676 
Q 1341 356 1775 356 
Q 2203 356 2470 665 
Q 2738 975 2738 1447 
z
" transform="scale(0.015625)"/>
       <path id="SegoeUI-65" d="M 3091 1472 
L 831 1472 
Q 844 938 1119 647 
Q 1394 356 1875 356 
Q 2416 356 2869 713 
L 2869 231 
Q 2447 -75 1753 -75 
Q 1075 -75 687 361 
Q 300 797 300 1588 
Q 300 2334 723 2804 
Q 1147 3275 1775 3275 
Q 2403 3275 2747 2869 
Q 3091 2463 3091 1741 
L 3091 1472 
z
M 2566 1906 
Q 2563 2350 2352 2597 
Q 2141 2844 1766 2844 
Q 1403 2844 1150 2584 
Q 897 2325 838 1906 
L 2566 1906 
z
" transform="scale(0.015625)"/>
      </defs>
      <use xlink:href="#SegoeUI-45"/>
      <use xlink:href="#SegoeUI-70" transform="translate(50.585938 0)"/>
      <use xlink:href="#SegoeUI-69" transform="translate(109.375 0)"/>
      <use xlink:href="#SegoeUI-73" transform="translate(133.59375 0)"/>
      <use xlink:href="#SegoeUI-6f" transform="translate(176.025391 0)"/>
      <use xlink:href="#SegoeUI-64" transform="translate(234.619141 0)"/>
      <use xlink:href="#SegoeUI-65" transform="translate(293.505859 0)"/>
     </g>
    </g>
   </g>
   <g id="matplotlib.axis_2">
    <g id="ytick_1">
     <g id="line2d_17">
      <path d="M 41.605313 175.541763 
L 443.365313 175.541763 
" clip-path="url(#pfaf2f7565e)" style="fill: none; stroke: #e1e0d9; stroke-width: 0.6; stroke-linecap: square"/>
     </g>
     <g id="line2d_18">
      <defs>
       <path id="md496e1114d" d="M 0 0 
L -3.5 0 
" style="stroke: #898781; stroke-width: 0.8"/>
      </defs>
      <g>
       <use xlink:href="#md496e1114d" x="41.605313" y="175.541763" style="fill: #898781; stroke: #898781; stroke-width: 0.8"/>
      </g>
     </g>
     <g id="text_10">
      <!-- 0.02 -->
      <g style="fill: #898781" transform="translate(19.932813 178.503013) scale(0.08 -0.08)">
       <defs>
        <path id="SegoeUI-2e" d="M 697 -69 
Q 553 -69 451 34 
Q 350 138 350 281 
Q 350 425 451 529 
Q 553 634 697 634 
Q 844 634 947 529 
Q 1050 425 1050 281 
Q 1050 138 947 34 
Q 844 -69 697 -69 
z
" transform="scale(0.015625)"/>
       </defs>
       <use xlink:href="#SegoeUI-30"/>
       <use xlink:href="#SegoeUI-2e" transform="translate(53.90625 0)"/>
       <use xlink:href="#SegoeUI-30" transform="translate(75.585938 0)"/>
       <use xlink:href="#SegoeUI-32" transform="translate(129.492188 0)"/>
      </g>
     </g>
    </g>
    <g id="ytick_2">
     <g id="line2d_19">
      <path d="M 41.605313 155.362177 
L 443.365313 155.362177 
" clip-path="url(#pfaf2f7565e)" style="fill: none; stroke: #e1e0d9; stroke-width: 0.6; stroke-linecap: square"/>
     </g>
     <g id="line2d_20">
      <g>
       <use xlink:href="#md496e1114d" x="41.605313" y="155.362177" style="fill: #898781; stroke: #898781; stroke-width: 0.8"/>
      </g>
     </g>
     <g id="text_11">
      <!-- 0.04 -->
      <g style="fill: #898781" transform="translate(19.932813 158.323427) scale(0.08 -0.08)">
       <defs>
        <path id="SegoeUI-34" d="M 2656 4481 
L 2656 1522 
L 3231 1522 
L 3231 1053 
L 2656 1053 
L 2656 0 
L 2150 0 
L 2150 1053 
L 44 1053 
L 44 1497 
Q 338 1828 638 2204 
Q 938 2581 1211 2968 
Q 1484 3356 1717 3742 
Q 1950 4128 2109 4481 
L 2656 4481 
z
M 622 1522 
L 2150 1522 
L 2150 3716 
Q 1916 3306 1706 2984 
Q 1497 2663 1308 2400 
Q 1119 2138 947 1925 
Q 775 1713 622 1522 
z
" transform="scale(0.015625)"/>
       </defs>
       <use xlink:href="#SegoeUI-30"/>
       <use xlink:href="#SegoeUI-2e" transform="translate(53.90625 0)"/>
       <use xlink:href="#SegoeUI-30" transform="translate(75.585938 0)"/>
       <use xlink:href="#SegoeUI-34" transform="translate(129.492188 0)"/>
      </g>
     </g>
    </g>
    <g id="ytick_3">
     <g id="line2d_21">
      <path d="M 41.605313 135.182591 
L 443.365313 135.182591 
" clip-path="url(#pfaf2f7565e)" style="fill: none; stroke: #e1e0d9; stroke-width: 0.6; stroke-linecap: square"/>
     </g>
     <g id="line2d_22">
      <g>
       <use xlink:href="#md496e1114d" x="41.605313" y="135.182591" style="fill: #898781; stroke: #898781; stroke-width: 0.8"/>
      </g>
     </g>
     <g id="text_12">
      <!-- 0.06 -->
      <g style="fill: #898781" transform="translate(19.932813 138.143841) scale(0.08 -0.08)">
       <defs>
        <path id="SegoeUI-36" d="M 3194 1422 
Q 3194 1094 3087 819 
Q 2981 544 2793 344 
Q 2606 144 2347 33 
Q 2088 -78 1784 -78 
Q 1447 -78 1180 62 
Q 913 203 727 467 
Q 541 731 444 1112 
Q 347 1494 347 1972 
Q 347 2556 476 3032 
Q 606 3509 845 3848 
Q 1084 4188 1421 4372 
Q 1759 4556 2175 4556 
Q 2638 4556 2919 4428 
L 2919 3944 
Q 2572 4122 2188 4122 
Q 1888 4122 1647 3987 
Q 1406 3853 1234 3608 
Q 1063 3363 970 3016 
Q 878 2669 878 2244 
L 891 2244 
Q 1200 2803 1913 2803 
Q 2206 2803 2442 2703 
Q 2678 2603 2845 2420 
Q 3013 2238 3103 1984 
Q 3194 1731 3194 1422 
z
M 2669 1356 
Q 2669 1591 2609 1778 
Q 2550 1966 2439 2097 
Q 2328 2228 2165 2298 
Q 2003 2369 1797 2369 
Q 1606 2369 1443 2297 
Q 1281 2225 1162 2101 
Q 1044 1978 976 1814 
Q 909 1650 909 1466 
Q 909 1234 975 1032 
Q 1041 831 1159 681 
Q 1278 531 1442 445 
Q 1606 359 1806 359 
Q 2000 359 2159 432 
Q 2319 506 2431 637 
Q 2544 769 2606 951 
Q 2669 1134 2669 1356 
z
" transform="scale(0.015625)"/>
       </defs>
       <use xlink:href="#SegoeUI-30"/>
       <use xlink:href="#SegoeUI-2e" transform="translate(53.90625 0)"/>
       <use xlink:href="#SegoeUI-30" transform="translate(75.585938 0)"/>
       <use xlink:href="#SegoeUI-36" transform="translate(129.492188 0)"/>
      </g>
     </g>
    </g>
    <g id="ytick_4">
     <g id="line2d_23">
      <path d="M 41.605313 115.003005 
L 443.365313 115.003005 
" clip-path="url(#pfaf2f7565e)" style="fill: none; stroke: #e1e0d9; stroke-width: 0.6; stroke-linecap: square"/>
     </g>
     <g id="line2d_24">
      <g>
       <use xlink:href="#md496e1114d" x="41.605313" y="115.003005" style="fill: #898781; stroke: #898781; stroke-width: 0.8"/>
      </g>
     </g>
     <g id="text_13">
      <!-- 0.08 -->
      <g style="fill: #898781" transform="translate(19.932813 117.964255) scale(0.08 -0.08)">
       <defs>
        <path id="SegoeUI-38" d="M 281 1250 
Q 281 1428 337 1608 
Q 394 1788 498 1944 
Q 603 2100 758 2228 
Q 913 2356 1109 2431 
Q 819 2594 647 2848 
Q 475 3103 475 3413 
Q 475 3659 570 3868 
Q 666 4078 834 4231 
Q 1003 4384 1234 4470 
Q 1466 4556 1734 4556 
Q 2006 4556 2237 4468 
Q 2469 4381 2637 4228 
Q 2806 4075 2900 3865 
Q 2994 3656 2994 3413 
Q 2994 3103 2822 2848 
Q 2650 2594 2366 2431 
Q 2559 2356 2712 2228 
Q 2866 2100 2970 1944 
Q 3075 1788 3131 1608 
Q 3188 1428 3188 1250 
Q 3188 956 3081 712 
Q 2975 469 2783 295 
Q 2591 122 2323 25 
Q 2056 -72 1734 -72 
Q 1416 -72 1150 25 
Q 884 122 690 295 
Q 497 469 389 712 
Q 281 956 281 1250 
z
M 838 1294 
Q 838 1084 902 915 
Q 966 747 1083 628 
Q 1200 509 1367 445 
Q 1534 381 1738 381 
Q 1934 381 2100 447 
Q 2266 513 2386 631 
Q 2506 750 2573 919 
Q 2641 1088 2641 1294 
Q 2641 1481 2577 1645 
Q 2513 1809 2394 1934 
Q 2275 2059 2109 2131 
Q 1944 2203 1738 2203 
Q 1544 2203 1380 2136 
Q 1216 2069 1095 1948 
Q 975 1828 906 1661 
Q 838 1494 838 1294 
z
M 997 3372 
Q 997 3213 1055 3077 
Q 1113 2941 1214 2839 
Q 1316 2738 1450 2680 
Q 1584 2622 1738 2622 
Q 1891 2622 2027 2681 
Q 2163 2741 2263 2842 
Q 2363 2944 2422 3080 
Q 2481 3216 2481 3372 
Q 2481 3534 2423 3671 
Q 2366 3809 2266 3909 
Q 2166 4009 2030 4067 
Q 1894 4125 1738 4125 
Q 1572 4125 1436 4065 
Q 1300 4006 1201 3904 
Q 1103 3803 1050 3665 
Q 997 3528 997 3372 
z
" transform="scale(0.015625)"/>
       </defs>
       <use xlink:href="#SegoeUI-30"/>
       <use xlink:href="#SegoeUI-2e" transform="translate(53.90625 0)"/>
       <use xlink:href="#SegoeUI-30" transform="translate(75.585938 0)"/>
       <use xlink:href="#SegoeUI-38" transform="translate(129.492188 0)"/>
      </g>
     </g>
    </g>
    <g id="ytick_5">
     <g id="line2d_25">
      <path d="M 41.605313 94.823419 
L 443.365313 94.823419 
" clip-path="url(#pfaf2f7565e)" style="fill: none; stroke: #e1e0d9; stroke-width: 0.6; stroke-linecap: square"/>
     </g>
     <g id="line2d_26">
      <g>
       <use xlink:href="#md496e1114d" x="41.605313" y="94.823419" style="fill: #898781; stroke: #898781; stroke-width: 0.8"/>
      </g>
     </g>
     <g id="text_14">
      <!-- 0.10 -->
      <g style="fill: #898781" transform="translate(19.932813 97.784669) scale(0.08 -0.08)">
       <use xlink:href="#SegoeUI-30"/>
       <use xlink:href="#SegoeUI-2e" transform="translate(53.90625 0)"/>
       <use xlink:href="#SegoeUI-31" transform="translate(75.585938 0)"/>
       <use xlink:href="#SegoeUI-30" transform="translate(129.492188 0)"/>
      </g>
     </g>
    </g>
    <g id="ytick_6">
     <g id="line2d_27">
      <path d="M 41.605313 74.643833 
L 443.365313 74.643833 
" clip-path="url(#pfaf2f7565e)" style="fill: none; stroke: #e1e0d9; stroke-width: 0.6; stroke-linecap: square"/>
     </g>
     <g id="line2d_28">
      <g>
       <use xlink:href="#md496e1114d" x="41.605313" y="74.643833" style="fill: #898781; stroke: #898781; stroke-width: 0.8"/>
      </g>
     </g>
     <g id="text_15">
      <!-- 0.12 -->
      <g style="fill: #898781" transform="translate(19.932813 77.605083) scale(0.08 -0.08)">
       <use xlink:href="#SegoeUI-30"/>
       <use xlink:href="#SegoeUI-2e" transform="translate(53.90625 0)"/>
       <use xlink:href="#SegoeUI-31" transform="translate(75.585938 0)"/>
       <use xlink:href="#SegoeUI-32" transform="translate(129.492188 0)"/>
      </g>
     </g>
    </g>
    <g id="ytick_7">
     <g id="line2d_29">
      <path d="M 41.605313 54.464247 
L 443.365313 54.464247 
" clip-path="url(#pfaf2f7565e)" style="fill: none; stroke: #e1e0d9; stroke-width: 0.6; stroke-linecap: square"/>
     </g>
     <g id="line2d_30">
      <g>
       <use xlink:href="#md496e1114d" x="41.605313" y="54.464247" style="fill: #898781; stroke: #898781; stroke-width: 0.8"/>
      </g>
     </g>
     <g id="text_16">
      <!-- 0.14 -->
      <g style="fill: #898781" transform="translate(19.932813 57.425497) scale(0.08 -0.08)">
       <use xlink:href="#SegoeUI-30"/>
       <use xlink:href="#SegoeUI-2e" transform="translate(53.90625 0)"/>
       <use xlink:href="#SegoeUI-31" transform="translate(75.585938 0)"/>
       <use xlink:href="#SegoeUI-34" transform="translate(129.492188 0)"/>
      </g>
     </g>
    </g>
    <g id="ytick_8">
     <g id="line2d_31">
      <path d="M 41.605313 34.28466 
L 443.365313 34.28466 
" clip-path="url(#pfaf2f7565e)" style="fill: none; stroke: #e1e0d9; stroke-width: 0.6; stroke-linecap: square"/>
     </g>
     <g id="line2d_32">
      <g>
       <use xlink:href="#md496e1114d" x="41.605313" y="34.28466" style="fill: #898781; stroke: #898781; stroke-width: 0.8"/>
      </g>
     </g>
     <g id="text_17">
      <!-- 0.16 -->
      <g style="fill: #898781" transform="translate(19.932813 37.24591) scale(0.08 -0.08)">
       <use xlink:href="#SegoeUI-30"/>
       <use xlink:href="#SegoeUI-2e" transform="translate(53.90625 0)"/>
       <use xlink:href="#SegoeUI-31" transform="translate(75.585938 0)"/>
       <use xlink:href="#SegoeUI-36" transform="translate(129.492188 0)"/>
      </g>
     </g>
    </g>
    <g id="text_18">
     <!-- Loss -->
     <g style="fill: #52514e" transform="translate(13.862813 113.078047) rotate(-90) scale(0.09 -0.09)">
      <defs>
       <path id="SegoeUI-4c" d="M 2913 0 
L 588 0 
L 588 4481 
L 1113 4481 
L 1113 475 
L 2913 475 
L 2913 0 
z
" transform="scale(0.015625)"/>
      </defs>
      <use xlink:href="#SegoeUI-4c"/>
      <use xlink:href="#SegoeUI-6f" transform="translate(47.070312 0)"/>
      <use xlink:href="#SegoeUI-73" transform="translate(105.664062 0)"/>
      <use xlink:href="#SegoeUI-73" transform="translate(148.095703 0)"/>
     </g>
    </g>
   </g>
   <g id="line2d_33">
    <path d="M 41.605313 119.824917 
L 43.624207 139.884098 
L 45.643101 152.207435 
L 47.661996 162.710237 
L 49.68089 127.056944 
L 51.699785 98.489041 
L 53.718679 105.939007 
L 55.737574 61.950873 
L 57.756468 135.280294 
L 59.775363 141.599699 
L 61.794257 161.607086 
L 63.813152 161.705294 
L 65.832046 122.928571 
L 67.850941 155.85994 
L 69.869835 109.252238 
L 71.88873 135.36604 
L 73.907624 105.212542 
L 75.926519 132.079004 
L 77.945413 118.936511 
L 79.964307 129.781188 
L 81.983202 133.598493 
L 84.002096 154.191929 
L 86.020991 62.42173 
L 88.039885 151.527047 
L 90.05878 162.087754 
L 92.077674 145.410623 
L 94.096569 119.751396 
L 96.115463 140.882651 
L 98.134358 129.73982 
L 100.153252 146.522846 
L 102.172147 151.615501 
L 104.191041 76.739146 
L 106.209936 98.869426 
L 108.22883 169.854483 
L 110.247725 130.211165 
L 112.266619 159.216478 
L 114.285514 142.355871 
L 116.304408 150.875641 
L 118.323302 137.816027 
L 120.342197 123.985948 
L 122.361091 132.404198 
L 124.379986 105.397522 
L 126.39888 141.152283 
L 128.417775 150.155844 
L 130.436669 149.395746 
L 132.455564 46.405865 
L 134.474458 144.744352 
L 136.493353 145.975811 
L 138.512247 101.42887 
L 140.531142 149.452249 
L 142.550036 145.168123 
L 144.568931 141.979748 
L 146.587825 87.63276 
L 148.60672 136.282378 
L 150.625614 99.00732 
L 152.644508 87.975813 
L 154.663403 164.732232 
L 156.682297 128.74194 
L 158.701192 127.729597 
L 160.720086 131.089498 
L 162.738981 152.368704 
L 164.757875 160.861451 
L 166.77677 167.273961 
L 168.795664 172.162355 
L 170.814559 163.921685 
L 172.833453 113.798956 
L 174.852348 132.542995 
L 176.871242 96.24608 
L 178.890137 119.657763 
L 180.909031 180.103438 
L 182.927926 147.582947 
L 184.94682 169.805733 
L 186.965715 117.041311 
L 188.984609 133.716208 
L 191.003503 52.109962 
L 193.022398 172.551821 
L 195.041292 143.271074 
L 197.060187 171.626251 
L 199.079081 131.978073 
L 201.097976 119.247445 
L 203.11687 93.972513 
L 205.135765 119.916734 
L 207.154659 153.764795 
L 209.173554 109.681862 
L 211.192448 130.080519 
L 213.211343 60.165316 
L 215.230237 146.772568 
L 217.249132 136.557998 
L 219.268026 150.071762 
L 221.286921 108.081407 
L 223.305815 139.558198 
L 225.324709 149.395746 
L 227.343604 157.299922 
L 229.362498 166.50938 
L 231.381393 82.651765 
L 233.400287 117.895412 
L 235.419182 156.515777 
L 237.438076 139.376582 
L 239.456971 117.387727 
L 241.475865 168.20877 
L 243.49476 137.95762 
L 245.513654 121.948146 
L 247.532549 146.715224 
L 249.551443 129.152258 
L 251.570338 123.686953 
L 253.589232 140.375471 
L 255.608127 173.41618 
L 257.627021 117.505274 
L 259.645916 165.310914 
L 261.66481 81.710051 
L 263.683704 95.714684 
L 265.702599 153.969786 
L 267.721493 149.735268 
L 269.740388 122.883133 
L 271.759282 147.707387 
L 273.778177 141.455079 
L 275.797071 74.69445 
L 277.815966 92.408595 
L 279.83486 160.09429 
L 281.853755 140.170312 
L 283.872649 147.986538 
L 285.891544 132.643326 
L 287.910438 139.363129 
L 289.929333 142.928189 
L 291.948227 96.104823 
L 293.967122 156.313796 
L 295.986016 143.126621 
L 298.00491 158.795749 
L 300.023805 134.597383 
L 302.042699 124.689206 
L 304.061594 158.104247 
L 306.080488 165.943531 
L 308.099383 150.054946 
L 310.118277 158.873425 
L 312.137172 144.33067 
L 314.156066 141.879051 
L 316.174961 129.165879 
L 318.193855 85.951127 
L 320.21275 115.877454 
L 322.231644 127.921303 
L 324.250539 133.985269 
L 326.269433 150.67715 
L 328.288328 97.315598 
L 330.307222 162.028167 
L 332.326117 147.661311 
L 334.345011 122.472815 
L 336.363905 161.426143 
L 338.3828 172.726711 
L 340.401694 150.593236 
L 342.420589 136.615342 
L 344.439483 150.330734 
L 346.458378 81.851308 
L 348.477272 142.52796 
L 350.496167 135.273567 
L 352.515061 106.530942 
L 354.533956 91.598048 
L 356.55285 143.204145 
L 358.571745 163.582163 
L 360.590639 97.850693 
L 362.609534 165.93628 
L 364.628428 132.79131 
L 366.647323 147.974938 
L 368.666217 138.97787 
L 370.685111 161.769532 
L 372.704006 129.734103 
L 374.7229 153.963059 
L 376.741795 134.113073 
L 378.760689 143.933805 
L 380.779584 164.389179 
L 382.798478 156.112185 
L 384.817373 141.1053 
L 386.836267 143.795911 
L 388.855162 161.432869 
L 390.874056 132.024486 
L 392.892951 145.417173 
L 394.911845 153.621712 
L 396.93074 125.973973 
L 398.949634 122.469452 
L 400.968529 156.324743 
L 402.987423 96.915369 
L 405.006318 158.527009 
L 407.025212 130.944878 
L 409.044106 159.67405 
L 411.063001 143.738736 
L 413.081895 162.697457 
L 415.10079 160.013572 
L 417.119684 173.406595 
L 419.138579 28.903437 
L 421.157473 134.91353 
L 423.176368 165.673946 
L 425.195262 143.664744 
L 427.214157 152.47986 
L 429.233051 136.743146 
L 431.251946 151.858496 
L 433.27084 135.04806 
L 435.289735 127.652242 
L 437.308629 149.123322 
L 439.327524 124.39096 
L 441.346418 147.969722 
L 443.365313 139.218508 
L 443.365313 139.218508 
" clip-path="url(#pfaf2f7565e)" style="fill: none; stroke: #2a78d6; stroke-opacity: 0.35; stroke-linecap: square"/>
   </g>
   <g id="line2d_34">
    <path d="M 41.605313 119.824917 
L 43.624207 129.854508 
L 45.643101 137.305483 
L 47.661996 143.656672 
L 49.68089 140.336726 
L 51.699785 133.362112 
L 53.718679 129.444526 
L 55.737574 121.007819 
L 57.756468 122.59365 
L 59.775363 124.494255 
L 61.794257 127.868148 
L 63.813152 130.687911 
L 65.832046 130.091038 
L 67.850941 131.931674 
L 69.869835 130.419712 
L 71.88873 130.728857 
L 73.907624 129.227898 
L 75.926519 129.386292 
L 77.945413 128.836304 
L 79.964307 128.883548 
L 84.002096 130.287618 
L 86.020991 125.798333 
L 88.039885 125.239174 
L 90.05878 126.990714 
L 92.077674 129.336793 
L 94.096569 130.027413 
L 96.115463 133.974002 
L 98.134358 133.696978 
L 100.153252 133.943135 
L 102.172147 133.443556 
L 104.191041 129.195249 
L 106.209936 127.992291 
L 108.22883 128.692018 
L 110.247725 129.739965 
L 112.266619 130.932487 
L 114.285514 132.789653 
L 118.323302 134.673461 
L 120.342197 134.383699 
L 122.361091 134.323984 
L 124.379986 131.884264 
L 126.39888 135.820791 
L 128.417775 135.752231 
L 130.436669 135.117631 
L 132.455564 130.167393 
L 134.474458 131.417041 
L 136.493353 131.671699 
L 138.512247 130.256151 
L 140.531142 130.402621 
L 142.550036 130.080252 
L 144.568931 133.342282 
L 146.587825 132.780449 
L 150.625614 129.541652 
L 152.644508 125.979618 
L 154.663403 127.098436 
L 156.682297 125.991751 
L 158.701192 125.48743 
L 160.720086 125.842607 
L 162.738981 126.840833 
L 164.757875 129.614029 
L 166.77677 130.920113 
L 168.795664 132.020439 
L 170.814559 132.746735 
L 172.833453 136.11639 
L 174.852348 135.506322 
L 176.871242 133.019836 
L 178.890137 133.93128 
L 180.909031 135.46384 
L 182.927926 135.584581 
L 186.965715 138.446308 
L 188.984609 138.317999 
L 191.003503 135.973131 
L 193.022398 140.201932 
L 195.041292 139.128874 
L 197.060187 141.273089 
L 199.079081 141.485513 
L 201.097976 140.89341 
L 203.11687 137.973601 
L 205.135765 135.926365 
L 207.154659 135.250907 
L 209.173554 132.126882 
L 211.192448 130.434824 
L 213.211343 127.753142 
L 215.230237 128.46462 
L 217.249132 130.480216 
L 219.268026 132.000916 
L 221.286921 128.399815 
L 223.305815 127.998577 
L 225.324709 126.978078 
L 227.343604 128.991009 
L 231.381393 132.157757 
L 233.400287 129.424937 
L 235.419182 130.087172 
L 237.438076 128.474689 
L 239.456971 127.745171 
L 241.475865 130.193238 
L 243.49476 132.392493 
L 245.513654 132.494064 
L 247.532549 132.141585 
L 249.551443 133.115105 
L 251.570338 132.795427 
L 253.589232 136.805934 
L 255.608127 138.138115 
L 257.627021 137.185479 
L 259.645916 137.947436 
L 261.66481 136.628869 
L 263.683704 134.436693 
L 265.702599 134.665395 
L 267.721493 134.287162 
L 269.740388 132.10585 
L 271.759282 135.358631 
L 273.778177 136.536614 
L 275.797071 132.445548 
L 277.815966 130.097149 
L 279.83486 132.232477 
L 281.853755 130.830554 
L 285.891544 131.866759 
L 287.910438 131.499154 
L 289.929333 132.18795 
L 291.948227 130.808844 
L 293.967122 131.60576 
L 295.986016 130.091282 
L 298.00491 132.155806 
L 300.023805 130.620129 
L 302.042699 132.769087 
L 304.061594 135.888565 
L 306.080488 136.487253 
L 308.099383 136.503237 
L 310.118277 138.302751 
L 312.137172 138.133915 
L 314.156066 138.155114 
L 316.174961 140.878685 
L 318.193855 140.555812 
L 320.21275 138.34497 
L 324.250539 137.032456 
L 326.269433 137.934147 
L 328.288328 135.831771 
L 330.307222 136.78677 
L 332.326117 139.364594 
L 334.345011 137.672545 
L 336.363905 138.587521 
L 342.420589 140.680169 
L 344.439483 140.291493 
L 346.458378 136.086882 
L 348.477272 135.710533 
L 350.496167 134.53054 
L 352.515061 132.640553 
L 354.533956 130.126503 
L 356.55285 130.828416 
L 358.571745 134.709968 
L 360.590639 133.80863 
L 362.609534 135.709379 
L 366.647323 135.514571 
L 368.666217 137.597684 
L 370.685111 137.584752 
L 372.704006 136.688392 
L 374.7229 138.262904 
L 378.760689 135.457605 
L 380.779584 136.147403 
L 382.798478 137.122245 
L 384.817373 136.660973 
L 386.836267 139.758203 
L 388.855162 140.703449 
L 390.874056 140.540995 
L 392.892951 142.485306 
L 394.911845 145.586489 
L 396.93074 144.724981 
L 398.949634 142.669345 
L 400.968529 145.593048 
L 402.987423 142.142002 
L 405.006318 143.428787 
L 407.025212 142.577284 
L 409.044106 143.612093 
L 411.063001 142.710553 
L 413.081895 144.358721 
L 415.10079 144.661246 
L 417.119684 146.625923 
L 419.138579 140.874404 
L 421.157473 139.400622 
L 423.176368 139.87871 
L 425.195262 140.006682 
L 427.214157 140.440879 
L 429.233051 139.206393 
L 431.251946 140.198094 
L 433.27084 139.679638 
L 435.289735 138.381165 
L 437.308629 139.538632 
L 439.327524 139.634707 
L 441.346418 139.216956 
L 443.365313 141.332113 
L 443.365313 141.332113 
" clip-path="url(#pfaf2f7565e)" style="fill: none; stroke: #2a78d6; stroke-width: 2; stroke-linecap: square"/>
   </g>
   <g id="patch_3">
    <path d="M 41.605313 187.663438 
L 41.605313 21.343438 
" style="fill: none; stroke: #c3c2b7; stroke-width: 0.8; stroke-linejoin: miter; stroke-linecap: square"/>
   </g>
   <g id="patch_4">
    <path d="M 41.605313 187.663438 
L 443.365313 187.663438 
" style="fill: none; stroke: #c3c2b7; stroke-width: 0.8; stroke-linejoin: miter; stroke-linecap: square"/>
   </g>
   <g id="text_19">
    <!-- Learning loss -->
    <g style="fill: #0b0b0b" transform="translate(209.824766 15.343437) scale(0.11 -0.11)">
     <defs>
      <path id="SegoeUI-Semibold-4c" d="M 3034 0 
L 553 0 
L 553 4481 
L 1297 4481 
L 1297 628 
L 3034 628 
L 3034 0 
z
" transform="scale(0.015625)"/>
      <path id="SegoeUI-Semibold-65" d="M 3181 1403 
L 1000 1403 
Q 1013 959 1273 718 
Q 1534 478 1991 478 
Q 2503 478 2931 784 
L 2931 200 
Q 2494 -75 1775 -75 
Q 1069 -75 667 361 
Q 266 797 266 1588 
Q 266 2334 708 2804 
Q 1150 3275 1806 3275 
Q 2463 3275 2822 2853 
Q 3181 2431 3181 1681 
L 3181 1403 
z
M 2481 1916 
Q 2478 2306 2297 2523 
Q 2116 2741 1797 2741 
Q 1484 2741 1267 2512 
Q 1050 2284 1000 1916 
L 2481 1916 
z
" transform="scale(0.015625)"/>
      <path id="SegoeUI-Semibold-61" d="M 2928 0 
L 2225 0 
L 2225 500 
L 2213 500 
Q 1881 -75 1241 -75 
Q 769 -75 501 181 
Q 234 438 234 859 
Q 234 1766 1278 1916 
L 2228 2050 
Q 2228 2734 1578 2734 
Q 1006 2734 547 2341 
L 547 2975 
Q 1053 3275 1716 3275 
Q 2928 3275 2928 2081 
L 2928 0 
z
M 2228 1572 
L 1556 1478 
Q 1244 1438 1086 1327 
Q 928 1216 928 938 
Q 928 734 1073 604 
Q 1219 475 1463 475 
Q 1794 475 2011 708 
Q 2228 941 2228 1294 
L 2228 1572 
z
" transform="scale(0.015625)"/>
      <path id="SegoeUI-Semibold-72" d="M 2328 2509 
Q 2197 2613 1950 2613 
Q 1628 2613 1412 2322 
Q 1197 2031 1197 1531 
L 1197 0 
L 472 0 
L 472 3200 
L 1197 3200 
L 1197 2541 
L 1209 2541 
Q 1316 2878 1536 3067 
Q 1756 3256 2028 3256 
Q 2225 3256 2328 3197 
L 2328 2509 
z
" transform="scale(0.015625)"/>
      <path id="SegoeUI-Semibold-6e" d="M 3322 0 
L 2597 0 
L 2597 1803 
Q 2597 2700 1963 2700 
Q 1631 2700 1415 2451 
Q 1200 2203 1200 1825 
L 1200 0 
L 472 0 
L 472 3200 
L 1200 3200 
L 1200 2669 
L 1213 2669 
Q 1572 3275 2250 3275 
Q 2772 3275 3047 2936 
Q 3322 2597 3322 1956 
L 3322 0 
z
" transform="scale(0.015625)"/>
      <path id="SegoeUI-Semibold-69" d="M 838 3872 
Q 659 3872 532 3987 
Q 406 4103 406 4281 
Q 406 4459 532 4578 
Q 659 4697 838 4697 
Q 1022 4697 1150 4578 
Q 1278 4459 1278 4281 
Q 1278 4113 1150 3992 
Q 1022 3872 838 3872 
z
M 1197 0 
L 472 0 
L 472 3200 
L 1197 3200 
L 1197 0 
z
" transform="scale(0.015625)"/>
      <path id="SegoeUI-Semibold-67" d="M 3384 256 
Q 3384 -1506 1613 -1506 
Q 988 -1506 522 -1297 
L 522 -634 
Q 1047 -934 1519 -934 
Q 2659 -934 2659 188 
L 2659 538 
L 2647 538 
Q 2288 -75 1566 -75 
Q 981 -75 623 351 
Q 266 778 266 1497 
Q 266 2313 650 2794 
Q 1034 3275 1706 3275 
Q 2341 3275 2647 2756 
L 2659 2756 
L 2659 3200 
L 3384 3200 
L 3384 256 
z
M 2666 1466 
L 2666 1881 
Q 2666 2219 2442 2458 
Q 2219 2697 1884 2697 
Q 1472 2697 1239 2392 
Q 1006 2088 1006 1541 
Q 1006 1069 1229 786 
Q 1453 503 1822 503 
Q 2197 503 2431 773 
Q 2666 1044 2666 1466 
z
" transform="scale(0.015625)"/>
      <path id="SegoeUI-Semibold-20" transform="scale(0.015625)"/>
      <path id="SegoeUI-Semibold-6c" d="M 1200 0 
L 472 0 
L 472 4738 
L 1200 4738 
L 1200 0 
z
" transform="scale(0.015625)"/>
      <path id="SegoeUI-Semibold-6f" d="M 1891 -75 
Q 1150 -75 708 373 
Q 266 822 266 1563 
Q 266 2369 727 2822 
Q 1188 3275 1969 3275 
Q 2719 3275 3137 2834 
Q 3556 2394 3556 1613 
Q 3556 847 3104 386 
Q 2653 -75 1891 -75 
z
M 1925 2697 
Q 1500 2697 1253 2400 
Q 1006 2103 1006 1581 
Q 1006 1078 1256 789 
Q 1506 500 1925 500 
Q 2353 500 2583 784 
Q 2813 1069 2813 1594 
Q 2813 2122 2583 2409 
Q 2353 2697 1925 2697 
z
" transform="scale(0.015625)"/>
      <path id="SegoeUI-Semibold-73" d="M 272 100 
L 272 772 
Q 678 463 1169 463 
Q 1825 463 1825 850 
Q 1825 959 1769 1036 
Q 1713 1113 1617 1172 
Q 1522 1231 1392 1278 
Q 1263 1325 1103 1384 
Q 906 1463 748 1550 
Q 591 1638 486 1748 
Q 381 1859 328 2000 
Q 275 2141 275 2328 
Q 275 2559 384 2736 
Q 494 2913 678 3033 
Q 863 3153 1097 3214 
Q 1331 3275 1581 3275 
Q 2025 3275 2375 3141 
L 2375 2506 
Q 2038 2738 1600 2738 
Q 1463 2738 1352 2709 
Q 1241 2681 1162 2631 
Q 1084 2581 1040 2511 
Q 997 2441 997 2356 
Q 997 2253 1040 2181 
Q 1084 2109 1170 2054 
Q 1256 2000 1376 1954 
Q 1497 1909 1653 1856 
Q 1859 1772 2023 1684 
Q 2188 1597 2303 1486 
Q 2419 1375 2481 1229 
Q 2544 1084 2544 884 
Q 2544 641 2431 459 
Q 2319 278 2131 159 
Q 1944 41 1698 -17 
Q 1453 -75 1181 -75 
Q 656 -75 272 100 
z
" transform="scale(0.015625)"/>
     </defs>
     <use xlink:href="#SegoeUI-Semibold-4c"/>
     <use xlink:href="#SegoeUI-Semibold-65" transform="translate(48.876953 0)"/>
     <use xlink:href="#SegoeUI-Semibold-61" transform="translate(102.001953 0)"/>
     <use xlink:href="#SegoeUI-Semibold-72" transform="translate(154.199219 0)"/>
     <use xlink:href="#SegoeUI-Semibold-6e" transform="translate(191.210938 0)"/>
     <use xlink:href="#SegoeUI-Semibold-69" transform="translate(249.560547 0)"/>
     <use xlink:href="#SegoeUI-Semibold-6e" transform="translate(275.683594 0)"/>
     <use xlink:href="#SegoeUI-Semibold-67" transform="translate(334.033203 0)"/>
     <use xlink:href="#SegoeUI-Semibold-20" transform="translate(394.287109 0)"/>
     <use xlink:href="#SegoeUI-Semibold-6c" transform="translate(421.777344 0)"/>
     <use xlink:href="#SegoeUI-Semibold-6f" transform="translate(447.900391 0)"/>
     <use xlink:href="#SegoeUI-Semibold-73" transform="translate(507.617188 0)"/>
     <use xlink:href="#SegoeUI-Semibold-73" transform="translate(550.732422 0)"/>
    </g>
   </g>
   <g id="legend_1">
    <g id="line2d_35">
     <path d="M 48.805313 31.665937 
L 56.805313 31.665937 
L 64.805313 31.665937 
" style="fill: none; stroke: #2a78d6; stroke-width: 2; stroke-linecap: square"/>
    </g>
    <g id="text_20">
     <!-- Avg(20) -->
     <g style="fill: #0b0b0b" transform="translate(71.205313 34.465937) scale(0.08 -0.08)">
      <defs>
       <path id="SegoeUI-41" d="M 4056 0 
L 3475 0 
L 3000 1256 
L 1100 1256 
L 653 0 
L 69 0 
L 1788 4481 
L 2331 4481 
L 4056 0 
z
M 2828 1728 
L 2125 3638 
Q 2091 3731 2056 3938 
L 2044 3938 
Q 2013 3747 1972 3638 
L 1275 1728 
L 2828 1728 
z
" transform="scale(0.015625)"/>
       <path id="SegoeUI-76" d="M 3034 3200 
L 1759 0 
L 1256 0 
L 44 3200 
L 606 3200 
L 1419 875 
Q 1509 619 1531 428 
L 1544 428 
Q 1575 669 1644 863 
L 2494 3200 
L 3034 3200 
z
" transform="scale(0.015625)"/>
       <path id="SegoeUI-67" d="M 3250 256 
Q 3250 -1506 1563 -1506 
Q 969 -1506 525 -1281 
L 525 -769 
Q 1066 -1069 1556 -1069 
Q 2738 -1069 2738 188 
L 2738 538 
L 2725 538 
Q 2359 -75 1625 -75 
Q 1028 -75 664 351 
Q 300 778 300 1497 
Q 300 2313 692 2794 
Q 1084 3275 1766 3275 
Q 2413 3275 2725 2756 
L 2738 2756 
L 2738 3200 
L 3250 3200 
L 3250 256 
z
M 2738 1447 
L 2738 1919 
Q 2738 2300 2480 2572 
Q 2222 2844 1838 2844 
Q 1363 2844 1094 2498 
Q 825 2153 825 1531 
Q 825 997 1083 676 
Q 1341 356 1766 356 
Q 2197 356 2467 662 
Q 2738 969 2738 1447 
z
" transform="scale(0.015625)"/>
       <path id="SegoeUI-28" d="M 1863 -1019 
L 1406 -1019 
Q 438 88 438 1709 
Q 438 3338 1406 4481 
L 1869 4481 
Q 888 3294 888 1716 
Q 888 150 1863 -1019 
z
" transform="scale(0.015625)"/>
       <path id="SegoeUI-29" d="M 531 -1019 
L 75 -1019 
Q 1050 150 1050 1716 
Q 1050 3294 69 4481 
L 531 4481 
Q 1506 3338 1506 1709 
Q 1506 88 531 -1019 
z
" transform="scale(0.015625)"/>
      </defs>
      <use xlink:href="#SegoeUI-41"/>
      <use xlink:href="#SegoeUI-76" transform="translate(62.376953 0)"/>
      <use xlink:href="#SegoeUI-67" transform="translate(109.652344 0)"/>
      <use xlink:href="#SegoeUI-28" transform="translate(168.539062 0)"/>
      <use xlink:href="#SegoeUI-32" transform="translate(198.714844 0)"/>
      <use xlink:href="#SegoeUI-30" transform="translate(252.621094 0)"/>
      <use xlink:href="#SegoeUI-29" transform="translate(306.527344 0)"/>
     </g>
    </g>
   </g>
  </g>
 </g>
 <defs>
  <clipPath id="pfaf2f7565e">
   <rect x="41.605313" y="21.343437" width="401.76" height="166.32"/>
  </clipPath>
 </defs>
</svg>
