<?xml version="1.0" encoding="utf-8" standalone="no"?>
<!DOCTYPE svg PUBLIC "-//W3C//DTD SVG 1.1//EN"
  "http://www.w3.org/Graphics/SVG/1.1/DTD/svg11.dtd">
<svg xmlns:xlink="http://www.w3.org/1999/xlink" width="444.517812pt" height="222.35875pt" viewBox="0 0 444.517812 222.35875" xmlns="http://www.w3.org/2000/svg" version="1.1">
 <metadata>
  <rdf:RDF xmlns:dc="http://purl.org/dc/elements/1.1/" xmlns:cc="http://creativecommons.org/ns#" xmlns:rdf="http://www.w3.org/1999/02/22-rdf-syntax-ns#">
   <cc:Work>
    <dc:type rdf:resource="http://purl.org/dc/dcmitype/StillImage"/>
    <dc:date>2026-07-21T00:08:38.012712</dc:date>
    <dc:format>image/svg+xml</dc:format>
    <dc:creator>
     <cc:Agent>
      <dc:title>Matplotlib v3.10.9, https://matplotlib.org/</dc:title>
     </cc:Agent>
    </dc:creator>
   </cc:Work>
  </rdf:RDF>
 </metadata>
 <defs>
  <style type="text/css">*{stroke-linejoin: round; stroke-linecap: butt}</style>
 </defs>
 <g id="figure_1">
  <g id="patch_1">
   <path d="M 0 222.35875 
L 444.517812 222.35875 
L 444.517812 0 
L 0 0 
z
" style="fill: #fcfcfb"/>
  </g>
  <g id="axes_1">
   <g id="patch_2">
    <path d="M 35.557813 187.663438 
L 437.317813 187.663438 
L 437.317813 21.343437 
L 35.557813 21.343437 
z
" style="fill: #fcfcfb"/>
   </g>
   <g id="matplotlib.axis_1">
    <g id="xtick_1">
     <g id="line2d_1">
      <path d="M 35.557813 187.663438 
L 35.557813 21.343437 
" clip-path="url(#p4bd76f997e)" style="fill: none; stroke: #e1e0d9; stroke-width: 0.6; stroke-linecap: square"/>
     </g>
     <g id="line2d_2">
      <defs>
       <path id="mc5eb64f868" d="M 0 0 
L 0 3.5 
" style="stroke: #898781; stroke-width: 0.8"/>
      </defs>
      <g>
       <use xlink:href="#mc5eb64f868" x="35.557813" y="187.663438" style="fill: #898781; stroke: #898781; stroke-width: 0.8"/>
      </g>
     </g>
     <g id="text_1">
      <!-- 0 -->
      <g style="fill: #898781" transform="translate(33.401563 200.585938) scale(0.08 -0.08)">
       <defs>
        <path id="SegoeUI-30" d="M 3188 2259 
Q 3188 1697 3086 1262 
Q 2984 828 2792 529 
Q 2600 231 2320 76 
Q 2041 -78 1684 -78 
Q 1347 -78 1083 70 
Q 819 219 637 503 
Q 456 788 362 1202 
Q 269 1616 269 2150 
Q 269 2738 367 3188 
Q 466 3638 656 3942 
Q 847 4247 1130 4401 
Q 1413 4556 1778 4556 
Q 3188 4556 3188 2259 
z
M 2663 2209 
Q 2663 4122 1753 4122 
Q 794 4122 794 2175 
Q 794 359 1734 359 
Q 2663 359 2663 2209 
z
" transform="scale(0.015625)"/>
       </defs>
       <use xlink:href="#SegoeUI-30"/>
      </g>
     </g>
    </g>
    <g id="xtick_2">
     <g id="line2d_3">
      <path d="M 86.030174 187.663438 
L 86.030174 21.343437 
" clip-path="url(#p4bd76f997e)" style="fill: none; stroke: #e1e0d9; stroke-width: 0.6; stroke-linecap: square"/>
     </g>
     <g id="line2d_4">
      <g>
       <use xlink:href="#mc5eb64f868" x="86.030174" y="187.663438" style="fill: #898781; stroke: #898781; stroke-width: 0.8"/>
      </g>
     </g>
     <g id="text_2">
      <!-- 25 -->
      <g style="fill: #898781" transform="translate(81.717674 200.585938) scale(0.08 -0.08)">
       <defs>
        <path id="SegoeUI-32" d="M 2413 3306 
Q 2413 3513 2348 3666 
Q 2284 3819 2173 3920 
Q 2063 4022 1913 4072 
Q 1763 4122 1588 4122 
Q 1438 4122 1294 4081 
Q 1150 4041 1014 3969 
Q 878 3897 751 3797 
Q 625 3697 516 3575 
L 516 4125 
Q 731 4334 998 4445 
Q 1266 4556 1650 4556 
Q 1925 4556 2159 4476 
Q 2394 4397 2566 4244 
Q 2738 4091 2836 3866 
Q 2934 3641 2934 3350 
Q 2934 3084 2873 2868 
Q 2813 2653 2689 2462 
Q 2566 2272 2378 2097 
Q 2191 1922 1938 1741 
Q 1622 1516 1417 1356 
Q 1213 1197 1092 1058 
Q 972 919 923 780 
Q 875 641 875 459 
L 3106 459 
L 3106 0 
L 341 0 
L 341 222 
Q 341 509 403 728 
Q 466 947 609 1144 
Q 753 1341 986 1537 
Q 1219 1734 1556 1981 
Q 1800 2156 1964 2315 
Q 2128 2475 2228 2634 
Q 2328 2794 2370 2958 
Q 2413 3122 2413 3306 
z
" transform="scale(0.015625)"/>
        <path id="SegoeUI-35" d="M 3028 1369 
Q 3028 1041 2915 775 
Q 2803 509 2595 318 
Q 2388 128 2094 25 
Q 1800 -78 1441 -78 
Q 816 -78 513 109 
L 513 653 
Q 969 359 1447 359 
Q 1691 359 1886 431 
Q 2081 503 2218 631 
Q 2356 759 2429 940 
Q 2503 1122 2503 1338 
Q 2503 1775 2209 2023 
Q 1916 2272 1356 2272 
Q 1266 2272 1166 2269 
Q 1066 2266 966 2261 
Q 866 2256 770 2250 
Q 675 2244 597 2234 
L 750 4481 
L 2822 4481 
L 2822 4019 
L 1194 4019 
L 1103 2703 
Q 1203 2709 1315 2714 
Q 1428 2719 1516 2719 
Q 1872 2719 2153 2625 
Q 2434 2531 2629 2357 
Q 2825 2184 2926 1932 
Q 3028 1681 3028 1369 
z
" transform="scale(0.015625)"/>
       </defs>
       <use xlink:href="#SegoeUI-32"/>
       <use xlink:href="#SegoeUI-35" transform="translate(53.90625 0)"/>
      </g>
     </g>
    </g>
    <g id="xtick_3">
     <g id="line2d_5">
      <path d="M 136.502536 187.663438 
L 136.502536 21.343437 
" clip-path="url(#p4bd76f997e)" style="fill: none; stroke: #e1e0d9; stroke-width: 0.6; stroke-linecap: square"/>
     </g>
     <g id="line2d_6">
      <g>
       <use xlink:href="#mc5eb64f868" x="136.502536" y="187.663438" style="fill: #898781; stroke: #898781; stroke-width: 0.8"/>
      </g>
     </g>
     <g id="text_3">
      <!-- 50 -->
      <g style="fill: #898781" transform="translate(132.190036 200.585938) scale(0.08 -0.08)">
       <use xlink:href="#SegoeUI-35"/>
       <use xlink:href="#SegoeUI-30" transform="translate(53.90625 0)"/>
      </g>
     </g>
    </g>
    <g id="xtick_4">
     <g id="line2d_7">
      <path d="M 186.974898 187.663438 
L 186.974898 21.343437 
" clip-path="url(#p4bd76f997e)" style="fill: none; stroke: #e1e0d9; stroke-width: 0.6; stroke-linecap: square"/>
     </g>
     <g id="line2d_8">
      <g>
       <use xlink:href="#mc5eb64f868" x="186.974898" y="187.663438" style="fill: #898781; stroke: #898781; stroke-width: 0.8"/>
      </g>
     </g>
     <g id="text_4">
      <!-- 75 -->
      <g style="fill: #898781" transform="translate(182.662398 200.585938) scale(0.08 -0.08)">
       <defs>
        <path id="SegoeUI-37" d="M 3156 4184 
Q 3053 4006 2908 3740 
Q 2763 3475 2600 3144 
Q 2438 2813 2269 2431 
Q 2100 2050 1953 1644 
Q 1806 1238 1695 820 
Q 1584 403 1534 0 
L 984 0 
Q 1041 400 1158 817 
Q 1275 1234 1423 1636 
Q 1572 2038 1737 2409 
Q 1903 2781 2059 3093 
Q 2216 3406 2345 3645 
Q 2475 3884 2553 4019 
L 306 4019 
L 306 4481 
L 3156 4481 
L 3156 4184 
z
" transform="scale(0.015625)"/>
       </defs>
       <use xlink:href="#SegoeUI-37"/>
       <use xlink:href="#SegoeUI-35" transform="translate(53.90625 0)"/>
      </g>
     </g>
    </g>
    <g id="xtick_5">
     <g id="line2d_9">
      <path d="M 237.44726 187.663438 
L 237.44726 21.343437 
" clip-path="url(#p4bd76f997e)" style="fill: none; stroke: #e1e0d9; stroke-width: 0.6; stroke-linecap: square"/>
     </g>
     <g id="line2d_10">
      <g>
       <use xlink:href="#mc5eb64f868" x="237.44726" y="187.663438" style="fill: #898781; stroke: #898781; stroke-width: 0.8"/>
      </g>
     </g>
     <g id="text_5">
      <!-- 100 -->
      <g style="fill: #898781" transform="translate(230.97851 200.585938) scale(0.08 -0.08)">
       <defs>
        <path id="SegoeUI-31" d="M 2263 0 
L 1750 0 
L 1750 3872 
Q 1691 3813 1577 3736 
Q 1463 3659 1320 3584 
Q 1178 3509 1020 3443 
Q 863 3378 713 3341 
L 713 3859 
Q 881 3906 1070 3986 
Q 1259 4066 1442 4164 
Q 1625 4263 1787 4370 
Q 1950 4478 2069 4581 
L 2263 4581 
L 2263 0 
z
" transform="scale(0.015625)"/>
       </defs>
       <use xlink:href="#SegoeUI-31"/>
       <use xlink:href="#SegoeUI-30" transform="translate(53.90625 0)"/>
       <use xlink:href="#SegoeUI-30" transform="translate(107.8125 0)"/>
      </g>
     </g>
    </g>
    <g id="xtick_6">
     <g id="line2d_11">
      <path d="M 287.919622 187.663438 
L 287.919622 21.343437 
" clip-path="url(#p4bd76f997e)" style="fill: none; stroke: #e1e0d9; stroke-width: 0.6; stroke-linecap: square"/>
     </g>
     <g id="line2d_12">
      <g>
       <use xlink:href="#mc5eb64f868" x="287.919622" y="187.663438" style="fill: #898781; stroke: #898781; stroke-width: 0.8"/>
      </g>
     </g>
     <g id="text_6">
      <!-- 125 -->
      <g style="fill: #898781" transform="translate(281.450872 200.585938) scale(0.08 -0.08)">
       <use xlink:href="#SegoeUI-31"/>
       <use xlink:href="#SegoeUI-32" transform="translate(53.90625 0)"/>
       <use xlink:href="#SegoeUI-35" transform="translate(107.8125 0)"/>
      </g>
     </g>
    </g>
    <g id="xtick_7">
     <g id="line2d_13">
      <path d="M 338.391983 187.663438 
L 338.391983 21.343437 
" clip-path="url(#p4bd76f997e)" style="fill: none; stroke: #e1e0d9; stroke-width: 0.6; stroke-linecap: square"/>
     </g>
     <g id="line2d_14">
      <g>
       <use xlink:href="#mc5eb64f868" x="338.391983" y="187.663438" style="fill: #898781; stroke: #898781; stroke-width: 0.8"/>
      </g>
     </g>
     <g id="text_7">
      <!-- 150 -->
      <g style="fill: #898781" transform="translate(331.923233 200.585938) scale(0.08 -0.08)">
       <use xlink:href="#SegoeUI-31"/>
       <use xlink:href="#SegoeUI-35" transform="translate(53.90625 0)"/>
       <use xlink:href="#SegoeUI-30" transform="translate(107.8125 0)"/>
      </g>
     </g>
    </g>
    <g id="xtick_8">
     <g id="line2d_15">
      <path d="M 388.864345 187.663438 
L 388.864345 21.343437 
" clip-path="url(#p4bd76f997e)" style="fill: none; stroke: #e1e0d9; stroke-width: 0.6; stroke-linecap: square"/>
     </g>
     <g id="line2d_16">
      <g>
       <use xlink:href="#mc5eb64f868" x="388.864345" y="187.663438" style="fill: #898781; stroke: #898781; stroke-width: 0.8"/>
      </g>
     </g>
     <g id="text_8">
      <!-- 175 -->
      <g style="fill: #898781" transform="translate(382.395595 200.585938) scale(0.08 -0.08)">
       <use xlink:href="#SegoeUI-31"/>
       <use xlink:href="#SegoeUI-37" transform="translate(53.90625 0)"/>
       <use xlink:href="#SegoeUI-35" transform="translate(107.8125 0)"/>
      </g>
     </g>
    </g>
    <g id="text_9">
     <!-- Episode -->
     <g style="fill: #52514e" transform="translate(220.875547 213.08875) scale(0.09 -0.09)">
      <defs>
       <path id="SegoeUI-45" d="M 2963 0 
L 588 0 
L 588 4481 
L 2863 4481 
L 2863 4006 
L 1113 4006 
L 1113 2516 
L 2731 2516 
L 2731 2044 
L 1113 2044 
L 1113 475 
L 2963 475 
L 2963 0 
z
" transform="scale(0.015625)"/>
       <path id="SegoeUI-70" d="M 1044 463 
L 1031 463 
L 1031 -1472 
L 519 -1472 
L 519 3200 
L 1031 3200 
L 1031 2638 
L 1044 2638 
Q 1422 3275 2150 3275 
Q 2769 3275 3116 2845 
Q 3463 2416 3463 1694 
Q 3463 891 3072 408 
Q 2681 -75 2003 -75 
Q 1381 -75 1044 463 
z
M 1031 1753 
L 1031 1306 
Q 1031 909 1289 632 
Q 1547 356 1944 356 
Q 2409 356 2673 712 
Q 2938 1069 2938 1703 
Q 2938 2238 2691 2541 
Q 2444 2844 2022 2844 
Q 1575 2844 1303 2533 
Q 1031 2222 1031 1753 
z
" transform="scale(0.015625)"/>
       <path id="SegoeUI-69" d="M 781 4013 
Q 644 4013 547 4106 
Q 450 4200 450 4344 
Q 450 4488 547 4583 
Q 644 4678 781 4678 
Q 922 4678 1020 4583 
Q 1119 4488 1119 4344 
Q 1119 4206 1020 4109 
Q 922 4013 781 4013 
z
M 1031 0 
L 519 0 
L 519 3200 
L 1031 3200 
L 1031 0 
z
" transform="scale(0.015625)"/>
       <path id="SegoeUI-73" d="M 325 116 
L 325 666 
Q 744 356 1247 356 
Q 1922 356 1922 806 
Q 1922 934 1864 1023 
Q 1806 1113 1707 1181 
Q 1609 1250 1476 1304 
Q 1344 1359 1191 1419 
Q 978 1503 817 1589 
Q 656 1675 548 1783 
Q 441 1891 386 2028 
Q 331 2166 331 2350 
Q 331 2575 434 2748 
Q 538 2922 709 3039 
Q 881 3156 1101 3215 
Q 1322 3275 1556 3275 
Q 1972 3275 2300 3131 
L 2300 2613 
Q 1947 2844 1488 2844 
Q 1344 2844 1228 2811 
Q 1113 2778 1030 2718 
Q 947 2659 901 2576 
Q 856 2494 856 2394 
Q 856 2269 901 2184 
Q 947 2100 1034 2034 
Q 1122 1969 1247 1916 
Q 1372 1863 1531 1800 
Q 1744 1719 1912 1633 
Q 2081 1547 2200 1439 
Q 2319 1331 2383 1190 
Q 2447 1050 2447 856 
Q 2447 619 2342 444 
Q 2238 269 2063 153 
Q 1888 38 1659 -18 
Q 1431 -75 1181 -75 
Q 688 -75 325 116 
z
" transform="scale(0.015625)"/>
       <path id="SegoeUI-6f" d="M 1856 -75 
Q 1147 -75 723 373 
Q 300 822 300 1563 
Q 300 2369 740 2822 
Q 1181 3275 1931 3275 
Q 2647 3275 3048 2834 
Q 3450 2394 3450 1613 
Q 3450 847 3017 386 
Q 2584 -75 1856 -75 
z
M 1894 2844 
Q 1400 2844 1112 2508 
Q 825 2172 825 1581 
Q 825 1013 1115 684 
Q 1406 356 1894 356 
Q 2391 356 2658 678 
Q 2925 1000 2925 1594 
Q 2925 2194 2658 2519 
Q 2391 2844 1894 2844 
z
" transform="scale(0.015625)"/>
       <path id="SegoeUI-64" d="M 3250 0 
L 2738 0 
L 2738 544 
L 2725 544 
Q 2369 -75 1625 -75 
Q 1022 -75 661 354 
Q 300 784 300 1525 
Q 300 2319 700 2797 
Q 1100 3275 1766 3275 
Q 2425 3275 2725 2756 
L 2738 2756 
L 2738 4738 
L 3250 4738 
L 3250 0 
z
M 2738 1447 
L 2738 1919 
Q 2738 2306 2481 2575 
Q 2225 2844 1831 2844 
Q 1363 2844 1094 2500 
Q 825 2156 825 1550 
Q 825 997 1083 676 
Q 1341 356 1775 356 
Q 2203 356 2470 665 
Q 2738 975 2738 1447 
z
" transform="scale(0.015625)"/>
       <path id="SegoeUI-65" d="M 3091 1472 
L 831 1472 
Q 844 938 1119 647 
Q 1394 356 1875 356 
Q 2416 356 2869 713 
L 2869 231 
Q 2447 -75 1753 -75 
Q 1075 -75 687 361 
Q 300 797 300 1588 
Q 300 2334 723 2804 
Q 1147 3275 1775 3275 
Q 2403 3275 2747 2869 
Q 3091 2463 3091 1741 
L 3091 1472 
z
M 2566 1906 
Q 2563 2350 2352 2597 
Q 2141 2844 1766 2844 
Q 1403 2844 1150 2584 
Q 897 2325 838 1906 
L 2566 1906 
z
" transform="scale(0.015625)"/>
      </defs>
      <use xlink:href="#SegoeUI-45"/>
      <use xlink:href="#SegoeUI-70" transform="translate(50.585938 0)"/>
      <use xlink:href="#SegoeUI-69" transform="translate(109.375 0)"/>
      <use xlink:href="#SegoeUI-73" transform="translate(133.59375 0)"/>
      <use xlink:href="#SegoeUI-6f" transform="translate(176.025391 0)"/>
      <use xlink:href="#SegoeUI-64" transform="translate(234.619141 0)"/>
      <use xlink:href="#SegoeUI-65" transform="translate(293.505859 0)"/>
     </g>
    </g>
   </g>
   <g id="matplotlib.axis_2">
    <g id="ytick_1">
     <g id="line2d_17">
      <path d="M 35.557813 172.009219 
L 437.317813 172.009219 
" clip-path="url(#p4bd76f997e)" style="fill: none; stroke: #e1e0d9; stroke-width: 0.6; stroke-linecap: square"/>
     </g>
     <g id="line2d_18">
      <defs>
       <path id="mf4fec11b09" d="M 0 0 
L -3.5 0 
" style="stroke: #898781; stroke-width: 0.8"/>
      </defs>
      <g>
       <use xlink:href="#mf4fec11b09" x="35.557813" y="172.009219" style="fill: #898781; stroke: #898781; stroke-width: 0.8"/>
      </g>
     </g>
     <g id="text_10">
      <!-- 0 -->
      <g style="fill: #898781" transform="translate(24.245313 174.970469) scale(0.08 -0.08)">
       <use xlink:href="#SegoeUI-30"/>
      </g>
     </g>
    </g>
    <g id="ytick_2">
     <g id="line2d_19">
      <path d="M 35.557813 139.632345 
L 437.317813 139.632345 
" clip-path="url(#p4bd76f997e)" style="fill: none; stroke: #e1e0d9; stroke-width: 0.6; stroke-linecap: square"/>
     </g>
     <g id="line2d_20">
      <g>
       <use xlink:href="#mf4fec11b09" x="35.557813" y="139.632345" style="fill: #898781; stroke: #898781; stroke-width: 0.8"/>
      </g>
     </g>
     <g id="text_11">
      <!-- 10 -->
      <g style="fill: #898781" transform="translate(19.932813 142.593595) scale(0.08 -0.08)">
       <use xlink:href="#SegoeUI-31"/>
       <use xlink:href="#SegoeUI-30" transform="translate(53.90625 0)"/>
      </g>
     </g>
    </g>
    <g id="ytick_3">
     <g id="line2d_21">
      <path d="M 35.557813 107.255472 
L 437.317813 107.255472 
" clip-path="url(#p4bd76f997e)" style="fill: none; stroke: #e1e0d9; stroke-width: 0.6; stroke-linecap: square"/>
     </g>
     <g id="line2d_22">
      <g>
       <use xlink:href="#mf4fec11b09" x="35.557813" y="107.255472" style="fill: #898781; stroke: #898781; stroke-width: 0.8"/>
      </g>
     </g>
     <g id="text_12">
      <!-- 20 -->
      <g style="fill: #898781" transform="translate(19.932813 110.216722) scale(0.08 -0.08)">
       <use xlink:href="#SegoeUI-32"/>
       <use xlink:href="#SegoeUI-30" transform="translate(53.90625 0)"/>
      </g>
     </g>
    </g>
    <g id="ytick_4">
     <g id="line2d_23">
      <path d="M 35.557813 74.878598 
L 437.317813 74.878598 
" clip-path="url(#p4bd76f997e)" style="fill: none; stroke: #e1e0d9; stroke-width: 0.6; stroke-linecap: square"/>
     </g>
     <g id="line2d_24">
      <g>
       <use xlink:href="#mf4fec11b09" x="35.557813" y="74.878598" style="fill: #898781; stroke: #898781; stroke-width: 0.8"/>
      </g>
     </g>
     <g id="text_13">
      <!-- 30 -->
      <g style="fill: #898781" transform="translate(19.932813 77.839848) scale(0.08 -0.08)">
       <defs>
        <path id="SegoeUI-33" d="M 2978 1269 
Q 2978 966 2864 717 
Q 2750 469 2542 292 
Q 2334 116 2043 19 
Q 1753 -78 1403 -78 
Q 763 -78 384 166 
L 384 716 
Q 838 359 1422 359 
Q 1656 359 1845 418 
Q 2034 478 2170 590 
Q 2306 703 2379 862 
Q 2453 1022 2453 1222 
Q 2453 2100 1203 2100 
L 831 2100 
L 831 2534 
L 1184 2534 
Q 2291 2534 2291 3359 
Q 2291 4122 1447 4122 
Q 972 4122 556 3803 
L 556 4300 
Q 984 4556 1575 4556 
Q 1856 4556 2084 4478 
Q 2313 4400 2475 4259 
Q 2638 4119 2727 3922 
Q 2816 3725 2816 3488 
Q 2816 2603 1922 2350 
L 1922 2338 
Q 2150 2313 2344 2227 
Q 2538 2141 2678 2003 
Q 2819 1866 2898 1680 
Q 2978 1494 2978 1269 
z
" transform="scale(0.015625)"/>
       </defs>
       <use xlink:href="#SegoeUI-33"/>
       <use xlink:href="#SegoeUI-30" transform="translate(53.90625 0)"/>
      </g>
     </g>
    </g>
    <g id="ytick_5">
     <g id="line2d_25">
      <path d="M 35.557813 42.501724 
L 437.317813 42.501724 
" clip-path="url(#p4bd76f997e)" style="fill: none; stroke: #e1e0d9; stroke-width: 0.6; stroke-linecap: square"/>
     </g>
     <g id="line2d_26">
      <g>
       <use xlink:href="#mf4fec11b09" x="35.557813" y="42.501724" style="fill: #898781; stroke: #898781; stroke-width: 0.8"/>
      </g>
     </g>
     <g id="text_14">
      <!-- 40 -->
      <g style="fill: #898781" transform="translate(19.932813 45.462974) scale(0.08 -0.08)">
       <defs>
        <path id="SegoeUI-34" d="M 2656 4481 
L 2656 1522 
L 3231 1522 
L 3231 1053 
L 2656 1053 
L 2656 0 
L 2150 0 
L 2150 1053 
L 44 1053 
L 44 1497 
Q 338 1828 638 2204 
Q 938 2581 1211 2968 
Q 1484 3356 1717 3742 
Q 1950 4128 2109 4481 
L 2656 4481 
z
M 622 1522 
L 2150 1522 
L 2150 3716 
Q 1916 3306 1706 2984 
Q 1497 2663 1308 2400 
Q 1119 2138 947 1925 
Q 775 1713 622 1522 
z
" transform="scale(0.015625)"/>
       </defs>
       <use xlink:href="#SegoeUI-34"/>
       <use xlink:href="#SegoeUI-30" transform="translate(53.90625 0)"/>
      </g>
     </g>
    </g>
    <g id="text_15">
     <!-- Episode reward -->
     <g style="fill: #52514e" transform="translate(13.862813 134.848203) rotate(-90) scale(0.09 -0.09)">
      <defs>
       <path id="SegoeUI-20" transform="scale(0.015625)"/>
       <path id="SegoeUI-72" d="M 2188 2681 
Q 2053 2784 1800 2784 
Q 1472 2784 1251 2475 
Q 1031 2166 1031 1631 
L 1031 0 
L 519 0 
L 519 3200 
L 1031 3200 
L 1031 2541 
L 1044 2541 
Q 1153 2878 1378 3067 
Q 1603 3256 1881 3256 
Q 2081 3256 2188 3213 
L 2188 2681 
z
" transform="scale(0.015625)"/>
       <path id="SegoeUI-77" d="M 4550 3200 
L 3591 0 
L 3059 0 
L 2400 2291 
Q 2363 2422 2350 2588 
L 2338 2588 
Q 2328 2475 2272 2297 
L 1556 0 
L 1044 0 
L 75 3200 
L 613 3200 
L 1275 794 
Q 1306 684 1319 506 
L 1344 506 
Q 1353 644 1400 800 
L 2138 3200 
L 2606 3200 
L 3269 788 
Q 3300 672 3316 500 
L 3341 500 
Q 3347 622 3394 788 
L 4044 3200 
L 4550 3200 
z
" transform="scale(0.015625)"/>
       <path id="SegoeUI-61" d="M 2809 0 
L 2297 0 
L 2297 500 
L 2284 500 
Q 1950 -75 1300 -75 
Q 822 -75 551 178 
Q 281 431 281 850 
Q 281 1747 1338 1894 
L 2297 2028 
Q 2297 2844 1638 2844 
Q 1059 2844 594 2450 
L 594 2975 
Q 1066 3275 1681 3275 
Q 2809 3275 2809 2081 
L 2809 0 
z
M 2297 1619 
L 1525 1513 
Q 1169 1463 987 1336 
Q 806 1209 806 888 
Q 806 653 973 504 
Q 1141 356 1419 356 
Q 1800 356 2048 623 
Q 2297 891 2297 1300 
L 2297 1619 
z
" transform="scale(0.015625)"/>
      </defs>
      <use xlink:href="#SegoeUI-45"/>
      <use xlink:href="#SegoeUI-70" transform="translate(50.585938 0)"/>
      <use xlink:href="#SegoeUI-69" transform="translate(109.375 0)"/>
      <use xlink:href="#SegoeUI-73" transform="translate(133.59375 0)"/>
      <use xlink:href="#SegoeUI-6f" transform="translate(176.025391 0)"/>
      <use xlink:href="#SegoeUI-64" transform="translate(234.619141 0)"/>
      <use xlink:href="#SegoeUI-65" transform="translate(293.505859 0)"/>
      <use xlink:href="#SegoeUI-20" transform="translate(345.800781 0)"/>
      <use xlink:href="#SegoeUI-72" transform="translate(373.193359 0)"/>
      <use xlink:href="#SegoeUI-65" transform="translate(406.583984 0)"/>
      <use xlink:href="#SegoeUI-77" transform="translate(458.878906 0)"/>
      <use xlink:href="#SegoeUI-61" transform="translate(531.144531 0)"/>
      <use xlink:href="#SegoeUI-72" transform="translate(582.023438 0)"/>
      <use xlink:href="#SegoeUI-64" transform="translate(615.414062 0)"/>
     </g>
    </g>
   </g>
   <g id="line2d_27">
    <path d="M 35.557813 117.616071 
L 37.576707 139.956114 
L 39.595601 151.28802 
L 41.614496 160.677313 
L 43.63339 124.415215 
L 45.652285 95.276029 
L 47.671179 104.017784 
L 49.690074 62.251617 
L 51.708968 137.365964 
L 53.727863 141.251189 
L 55.746757 160.353545 
L 57.765652 161.64862 
L 59.784546 121.501296 
L 61.803441 153.554401 
L 63.822335 107.255472 
L 65.84123 136.394658 
L 67.860124 103.370247 
L 69.879019 132.509433 
L 71.897913 121.177527 
L 73.916807 127.329133 
L 75.935702 132.185664 
L 77.954596 153.554401 
L 79.973491 63.546692 
L 81.992385 151.28802 
L 84.01128 162.943694 
L 86.030174 154.201939 
L 88.049069 120.206221 
L 90.067963 138.984808 
L 92.086858 127.976671 
L 94.105752 144.488876 
L 96.124647 152.906864 
L 98.143541 78.440054 
L 100.162436 97.866178 
L 102.18133 169.0953 
L 104.200225 131.214358 
L 106.219119 157.115857 
L 108.238014 146.10772 
L 110.256908 152.906864 
L 112.275802 135.747121 
L 114.294697 121.501296 
L 116.313591 130.566821 
L 118.332486 104.341553 
L 120.35138 146.431489 
L 122.370275 149.345408 
L 124.389169 147.079026 
L 126.408064 45.739412 
L 128.426958 142.222495 
L 130.445853 146.755258 
L 132.464747 102.075172 
L 134.483642 151.28802 
L 136.502536 144.812645 
L 138.521431 140.603652 
L 140.540325 86.534273 
L 142.55922 134.775814 
L 144.578114 95.923566 
L 146.597008 86.210504 
L 148.615903 162.943694 
L 150.634797 126.681596 
L 152.653692 126.034058 
L 154.672586 129.919283 
L 156.691481 151.935557 
L 158.710375 160.353545 
L 160.72927 173.304294 
L 162.748164 171.68545 
L 164.767059 162.296157 
L 166.785953 112.435772 
L 168.804848 135.747121 
L 170.823742 96.247335 
L 172.842637 122.148834 
L 174.861531 180.103438 
L 176.880426 146.10772 
L 178.89932 168.771532 
L 180.918215 117.292303 
L 182.937109 130.243052 
L 184.956003 51.891018 
L 186.974898 171.361682 
L 188.993792 146.431489 
L 191.012687 169.419069 
L 193.031581 133.480739 
L 195.050476 118.263609 
L 197.06937 92.038341 
L 199.088265 117.292303 
L 201.107159 152.906864 
L 203.126054 111.464465 
L 205.144948 128.30044 
L 207.163843 60.632774 
L 209.182737 145.460183 
L 211.201632 135.423352 
L 213.220526 149.992945 
L 215.239421 105.960397 
L 217.258315 137.689733 
L 219.277209 148.374101 
L 221.296104 156.46832 
L 223.314998 167.152688 
L 225.333893 81.353973 
L 227.352787 116.320996 
L 229.371682 154.201939 
L 231.390576 142.222495 
L 233.409471 117.616071 
L 235.428365 170.714144 
L 237.44726 139.956114 
L 239.466154 118.911146 
L 241.485049 146.755258 
L 243.503943 128.30044 
L 245.522838 122.796371 
L 247.541732 138.984808 
L 249.560627 171.037913 
L 251.579521 114.378384 
L 253.598416 166.828919 
L 255.61731 80.706435 
L 257.636204 94.95226 
L 259.655099 153.87817 
L 261.673993 151.611789 
L 263.692888 121.825065 
L 265.711782 145.783951 
L 267.730677 138.661039 
L 269.749571 73.907292 
L 271.768466 90.095729 
L 273.78736 159.05847 
L 275.806255 139.632345 
L 277.825149 148.374101 
L 279.844044 132.185664 
L 281.862938 138.661039 
L 283.881833 140.279883 
L 285.900727 94.95226 
L 287.919622 157.115857 
L 289.938516 144.165108 
L 291.95741 160.677313 
L 293.976305 132.509433 
L 295.995199 122.796371 
L 298.014094 158.410932 
L 300.032988 175.894444 
L 302.051883 147.726564 
L 304.070777 157.439626 
L 306.089672 141.251189 
L 308.108566 143.841339 
L 310.127461 131.861896 
L 312.146355 85.239198 
L 314.16525 114.378384 
L 316.184144 126.357827 
L 318.203039 131.214358 
L 320.221933 149.992945 
L 322.240828 96.571103 
L 324.259722 158.734701 
L 326.278617 147.726564 
L 328.297511 120.853759 
L 330.316405 160.029776 
L 332.3353 170.714144 
L 334.354194 151.28802 
L 336.373089 136.394658 
L 338.391983 151.611789 
L 340.410878 80.382667 
L 342.429772 142.222495 
L 344.448667 136.394658 
L 346.467561 104.989091 
L 348.486456 89.77196 
L 350.50535 141.898727 
L 352.524245 164.886307 
L 354.543139 96.571103 
L 356.562034 164.886307 
L 358.580928 130.89059 
L 360.599823 148.69787 
L 362.618717 140.92742 
L 364.637611 161.64862 
L 366.656506 127.652902 
L 368.6754 152.906864 
L 370.694295 132.509433 
L 372.713189 144.165108 
L 374.732084 163.915001 
L 376.750978 156.144551 
L 378.769873 139.632345 
L 380.788767 143.51757 
L 382.807662 160.029776 
L 384.826556 130.243052 
L 386.845451 146.755258 
L 388.864345 154.525707 
L 390.88324 124.738984 
L 392.902134 120.853759 
L 394.921029 159.05847 
L 396.939923 95.599797 
L 398.958818 157.115857 
L 400.977712 129.595515 
L 402.996606 159.05847 
L 405.015501 143.193802 
L 407.034395 162.943694 
L 409.05329 161.001082 
L 411.072184 172.656757 
L 413.091079 28.903437 
L 415.109973 131.861896 
L 417.128868 163.915001 
L 419.147762 142.546264 
L 421.166657 151.935557 
L 423.185551 136.718427 
L 425.204446 152.259326 
L 427.22334 132.833202 
L 429.242235 125.062752 
L 431.261129 150.640482 
L 433.280024 127.652902 
L 435.298918 149.992945 
L 437.317813 137.365964 
L 437.317813 137.365964 
" clip-path="url(#p4bd76f997e)" style="fill: none; stroke: #2a78d6; stroke-opacity: 0.25; stroke-linecap: square"/>
   </g>
   <g id="patch_3">
    <path d="M 35.557813 187.663438 
L 35.557813 21.343437 
" style="fill: none; stroke: #c3c2b7; stroke-width: 0.8; stroke-linejoin: miter; stroke-linecap: square"/>
   </g>
   <g id="patch_4">
    <path d="M 35.557813 187.663438 
L 437.317813 187.663438 
" style="fill: none; stroke: #c3c2b7; stroke-width: 0.8; stroke-linejoin: miter; stroke-linecap: square"/>
   </g>
   <g id="line2d_28">
    <path d="M 35.557813 117.616071 
L 37.576707 128.786093 
L 39.595601 136.286735 
L 41.614496 142.38438 
L 43.63339 138.790547 
L 45.652285 131.538127 
L 47.671179 127.606649 
L 49.690074 119.43727 
L 53.727863 123.411532 
L 55.746757 126.769897 
L 57.765652 129.676457 
L 59.784546 129.047598 
L 61.803441 130.798084 
L 63.822335 129.228577 
L 65.84123 129.676457 
L 67.860124 128.129033 
L 69.879019 128.372388 
L 71.897913 127.993711 
L 73.916807 127.960482 
L 77.954596 129.368876 
L 79.973491 124.98181 
L 81.992385 124.512345 
L 84.01128 126.438769 
L 86.030174 129.385065 
L 88.049069 130.194487 
L 90.067963 134.031146 
L 92.086858 133.561682 
L 94.105752 133.723566 
L 96.124647 133.351232 
L 98.143541 129.190804 
L 100.162436 128.009048 
L 102.18133 128.786093 
L 104.200225 129.984037 
L 106.219119 131.020097 
L 108.238014 133.156971 
L 110.256908 134.176842 
L 112.275802 134.905322 
L 114.294697 134.61393 
L 116.313591 134.532988 
L 118.332486 132.072345 
L 120.35138 136.216585 
L 122.370275 136.119455 
L 124.389169 135.326221 
L 126.408064 129.903095 
L 128.426958 131.003909 
L 130.445853 131.392431 
L 132.464747 130.097356 
L 134.483642 130.437313 
L 136.502536 130.032602 
L 138.521431 133.140782 
L 140.540325 132.574187 
L 144.578114 129.093673 
L 146.597008 125.548405 
L 148.615903 126.390204 
L 150.634797 125.078941 
L 152.653692 124.593288 
L 154.672586 125.014187 
L 156.691481 126.082624 
L 158.710375 128.883223 
L 160.72927 130.226864 
L 162.748164 131.343866 
L 164.767059 132.104722 
L 166.785953 135.43954 
L 168.804848 135.115772 
L 170.823742 132.590375 
L 172.842637 133.594058 
L 174.861531 135.034829 
L 176.880426 135.099583 
L 180.918215 138.045879 
L 182.937109 137.81924 
L 184.956003 135.617613 
L 186.974898 139.875172 
L 188.993792 139.049562 
L 191.012687 141.186435 
L 193.031581 141.558769 
L 195.050476 140.975986 
L 197.06937 137.981125 
L 199.088265 135.828063 
L 201.107159 134.808191 
L 203.126054 131.797142 
L 205.144948 130.097356 
L 207.163843 127.507206 
L 209.182737 127.992859 
L 211.201632 129.95166 
L 213.220526 131.343866 
L 215.239421 127.636714 
L 217.258315 127.215814 
L 219.277209 126.195943 
L 223.314998 130.000226 
L 225.333893 131.473373 
L 227.352787 128.721339 
L 229.371682 129.109861 
L 231.390576 127.750033 
L 233.409471 126.956799 
L 235.428365 129.579326 
L 237.44726 131.975215 
L 239.466154 132.056157 
L 241.485049 131.748577 
L 243.503943 132.590375 
L 245.522838 132.315172 
L 247.541732 136.232774 
L 249.560627 137.51166 
L 251.579521 136.459412 
L 253.598416 137.301211 
L 255.61731 136.038512 
L 257.636204 133.901639 
L 259.655099 134.176842 
L 261.673993 133.934016 
L 263.692888 131.667635 
L 265.711782 134.889133 
L 267.730677 136.006136 
L 269.749571 131.991403 
L 271.768466 129.385065 
L 273.78736 131.457185 
L 275.806255 129.903095 
L 277.825149 130.323994 
L 279.844044 130.98772 
L 281.862938 130.583009 
L 283.881833 131.181981 
L 285.900727 129.789776 
L 287.919622 130.696328 
L 289.938516 129.352688 
L 291.95741 131.667635 
L 293.976305 129.95166 
L 295.995199 132.056157 
L 298.014094 135.229091 
L 300.032988 136.329904 
L 302.051883 136.135643 
L 304.070777 137.916371 
L 306.089672 137.689733 
L 308.108566 137.948748 
L 310.127461 140.846478 
L 312.146355 140.603652 
L 314.16525 138.369647 
L 316.184144 137.705921 
L 318.203039 136.847934 
L 320.221933 137.738298 
L 322.240828 135.633802 
L 324.259722 136.556542 
L 326.278617 139.195258 
L 328.297511 137.382153 
L 330.316405 138.175386 
L 332.3353 138.677228 
L 334.354194 139.616157 
L 336.373089 140.296071 
L 338.391983 139.956114 
L 340.410878 135.180525 
L 342.429772 134.905322 
L 344.448667 133.853073 
L 346.467561 132.039969 
L 348.486456 129.3365 
L 350.50535 129.838341 
L 352.524245 133.820697 
L 354.543139 132.930333 
L 356.562034 134.856757 
L 360.599823 134.775814 
L 362.618717 136.99363 
L 364.637611 137.139326 
L 366.656506 136.135643 
L 368.6754 137.738298 
L 372.713189 135.034829 
L 374.732084 135.666178 
L 376.750978 136.653673 
L 378.769873 136.054701 
L 380.788767 139.211446 
L 382.807662 140.10181 
L 384.826556 139.79423 
L 386.845451 141.882538 
L 388.864345 145.120226 
L 390.88324 144.262238 
L 392.902134 142.060611 
L 394.921029 145.184979 
L 396.939923 141.720654 
L 398.958818 143.031917 
L 400.977712 142.076799 
L 402.996606 142.983352 
L 405.015501 142.060611 
L 407.034395 143.825151 
L 409.05329 144.229861 
L 411.072184 146.237228 
L 413.091079 140.474144 
L 415.109973 138.871489 
L 417.128868 139.260011 
L 419.147762 139.405707 
L 421.166657 139.826607 
L 423.185551 138.661039 
L 425.204446 139.761853 
L 427.22334 139.06575 
L 429.242235 137.592602 
L 431.261129 138.887677 
L 433.280024 139.227635 
L 435.298918 138.774358 
L 437.317813 140.862667 
L 437.317813 140.862667 
" clip-path="url(#p4bd76f997e)" style="fill: none; stroke: #2a78d6; stroke-width: 2; stroke-linecap: square"/>
   </g>
   <g id="text_16">
    <!-- Reward per episode -->
    <g style="fill: #0b0b0b" transform="translate(187.045234 15.343437) scale(0.11 -0.11)">
     <defs>
      <path id="SegoeUI-Semibold-52" d="M 4016 0 
L 3147 0 
L 2431 1200 
Q 2334 1366 2242 1483 
Q 2150 1600 2054 1675 
Q 1959 1750 1846 1784 
Q 1734 1819 1594 1819 
L 1294 1819 
L 1294 0 
L 553 0 
L 553 4481 
L 2028 4481 
Q 2344 4481 2609 4406 
Q 2875 4331 3072 4179 
Q 3269 4028 3380 3801 
Q 3491 3575 3491 3272 
Q 3491 3034 3420 2836 
Q 3350 2638 3220 2483 
Q 3091 2328 2908 2218 
Q 2725 2109 2497 2050 
L 2497 2038 
Q 2619 1969 2709 1886 
Q 2800 1803 2881 1715 
Q 2963 1628 3042 1517 
Q 3122 1406 3219 1259 
L 4016 0 
z
M 1294 3878 
L 1294 2422 
L 1913 2422 
Q 2084 2422 2229 2475 
Q 2375 2528 2481 2628 
Q 2588 2728 2647 2872 
Q 2706 3016 2706 3194 
Q 2706 3516 2503 3697 
Q 2300 3878 1919 3878 
L 1294 3878 
z
" transform="scale(0.015625)"/>
      <path id="SegoeUI-Semibold-65" d="M 3181 1403 
L 1000 1403 
Q 1013 959 1273 718 
Q 1534 478 1991 478 
Q 2503 478 2931 784 
L 2931 200 
Q 2494 -75 1775 -75 
Q 1069 -75 667 361 
Q 266 797 266 1588 
Q 266 2334 708 2804 
Q 1150 3275 1806 3275 
Q 2463 3275 2822 2853 
Q 3181 2431 3181 1681 
L 3181 1403 
z
M 2481 1916 
Q 2478 2306 2297 2523 
Q 2116 2741 1797 2741 
Q 1484 2741 1267 2512 
Q 1050 2284 1000 1916 
L 2481 1916 
z
" transform="scale(0.015625)"/>
      <path id="SegoeUI-Semibold-77" d="M 4775 3200 
L 3831 0 
L 3072 0 
L 2491 2169 
Q 2456 2294 2447 2450 
L 2434 2450 
Q 2428 2344 2378 2175 
L 1747 0 
L 1003 0 
L 63 3200 
L 813 3200 
L 1394 894 
Q 1422 791 1431 619 
L 1453 619 
Q 1463 750 1503 900 
L 2150 3200 
L 2831 3200 
L 3406 884 
Q 3434 775 3447 609 
L 3469 609 
Q 3475 725 3516 884 
L 4084 3200 
L 4775 3200 
z
" transform="scale(0.015625)"/>
      <path id="SegoeUI-Semibold-61" d="M 2928 0 
L 2225 0 
L 2225 500 
L 2213 500 
Q 1881 -75 1241 -75 
Q 769 -75 501 181 
Q 234 438 234 859 
Q 234 1766 1278 1916 
L 2228 2050 
Q 2228 2734 1578 2734 
Q 1006 2734 547 2341 
L 547 2975 
Q 1053 3275 1716 3275 
Q 2928 3275 2928 2081 
L 2928 0 
z
M 2228 1572 
L 1556 1478 
Q 1244 1438 1086 1327 
Q 928 1216 928 938 
Q 928 734 1073 604 
Q 1219 475 1463 475 
Q 1794 475 2011 708 
Q 2228 941 2228 1294 
L 2228 1572 
z
" transform="scale(0.015625)"/>
      <path id="SegoeUI-Semibold-72" d="M 2328 2509 
Q 2197 2613 1950 2613 
Q 1628 2613 1412 2322 
Q 1197 2031 1197 1531 
L 1197 0 
L 472 0 
L 472 3200 
L 1197 3200 
L 1197 2541 
L 1209 2541 
Q 1316 2878 1536 3067 
Q 1756 3256 2028 3256 
Q 2225 3256 2328 3197 
L 2328 2509 
z
" transform="scale(0.015625)"/>
      <path id="SegoeUI-Semibold-64" d="M 3381 0 
L 2656 0 
L 2656 544 
L 2644 544 
Q 2294 -75 1566 -75 
Q 975 -75 620 354 
Q 266 784 266 1525 
Q 266 2319 658 2797 
Q 1050 3275 1703 3275 
Q 2350 3275 2644 2756 
L 2656 2756 
L 2656 4738 
L 3381 4738 
L 3381 0 
z
M 2666 1463 
L 2666 1881 
Q 2666 2222 2444 2459 
Q 2222 2697 1878 2697 
Q 1472 2697 1239 2394 
Q 1006 2091 1006 1553 
Q 1006 1066 1229 783 
Q 1453 500 1831 500 
Q 2203 500 2434 773 
Q 2666 1047 2666 1463 
z
" transform="scale(0.015625)"/>
      <path id="SegoeUI-Semibold-20" transform="scale(0.015625)"/>
      <path id="SegoeUI-Semibold-70" d="M 1209 472 
L 1197 472 
L 1197 -1472 
L 472 -1472 
L 472 3200 
L 1197 3200 
L 1197 2638 
L 1209 2638 
Q 1581 3275 2297 3275 
Q 2906 3275 3247 2847 
Q 3588 2419 3588 1697 
Q 3588 897 3203 415 
Q 2819 -66 2153 -66 
Q 1541 -66 1209 472 
z
M 1191 1734 
L 1191 1338 
Q 1191 988 1414 744 
Q 1638 500 1981 500 
Q 2384 500 2614 814 
Q 2844 1128 2844 1691 
Q 2844 2163 2630 2430 
Q 2416 2697 2050 2697 
Q 1663 2697 1427 2422 
Q 1191 2147 1191 1734 
z
" transform="scale(0.015625)"/>
      <path id="SegoeUI-Semibold-69" d="M 838 3872 
Q 659 3872 532 3987 
Q 406 4103 406 4281 
Q 406 4459 532 4578 
Q 659 4697 838 4697 
Q 1022 4697 1150 4578 
Q 1278 4459 1278 4281 
Q 1278 4113 1150 3992 
Q 1022 3872 838 3872 
z
M 1197 0 
L 472 0 
L 472 3200 
L 1197 3200 
L 1197 0 
z
" transform="scale(0.015625)"/>
      <path id="SegoeUI-Semibold-73" d="M 272 100 
L 272 772 
Q 678 463 1169 463 
Q 1825 463 1825 850 
Q 1825 959 1769 1036 
Q 1713 1113 1617 1172 
Q 1522 1231 1392 1278 
Q 1263 1325 1103 1384 
Q 906 1463 748 1550 
Q 591 1638 486 1748 
Q 381 1859 328 2000 
Q 275 2141 275 2328 
Q 275 2559 384 2736 
Q 494 2913 678 3033 
Q 863 3153 1097 3214 
Q 1331 3275 1581 3275 
Q 2025 3275 2375 3141 
L 2375 2506 
Q 2038 2738 1600 2738 
Q 1463 2738 1352 2709 
Q 1241 2681 1162 2631 
Q 1084 2581 1040 2511 
Q 997 2441 997 2356 
Q 997 2253 1040 2181 
Q 1084 2109 1170 2054 
Q 1256 2000 1376 1954 
Q 1497 1909 1653 1856 
Q 1859 1772 2023 1684 
Q 2188 1597 2303 1486 
Q 2419 1375 2481 1229 
Q 2544 1084 2544 884 
Q 2544 641 2431 459 
Q 2319 278 2131 159 
Q 1944 41 1698 -17 
Q 1453 -75 1181 -75 
Q 656 -75 272 100 
z
" transform="scale(0.015625)"/>
      <path id="SegoeUI-Semibold-6f" d="M 1891 -75 
Q 1150 -75 708 373 
Q 266 822 266 1563 
Q 266 2369 727 2822 
Q 1188 3275 1969 3275 
Q 2719 3275 3137 2834 
Q 3556 2394 3556 1613 
Q 3556 847 3104 386 
Q 2653 -75 1891 -75 
z
M 1925 2697 
Q 1500 2697 1253 2400 
Q 1006 2103 1006 1581 
Q 1006 1078 1256 789 
Q 1506 500 1925 500 
Q 2353 500 2583 784 
Q 2813 1069 2813 1594 
Q 2813 2122 2583 2409 
Q 2353 2697 1925 2697 
z
" transform="scale(0.015625)"/>
     </defs>
     <use xlink:href="#SegoeUI-Semibold-52"/>
     <use xlink:href="#SegoeUI-Semibold-65" transform="translate(59.630859 0)"/>
     <use xlink:href="#SegoeUI-Semibold-77" transform="translate(112.755859 0)"/>
     <use xlink:href="#SegoeUI-Semibold-61" transform="translate(188.390625 0)"/>
     <use xlink:href="#SegoeUI-Semibold-72" transform="translate(240.587891 0)"/>
     <use xlink:href="#SegoeUI-Semibold-64" transform="translate(276.724609 0)"/>
     <use xlink:href="#SegoeUI-Semibold-20" transform="translate(336.978516 0)"/>
     <use xlink:href="#SegoeUI-Semibold-70" transform="translate(364.46875 0)"/>
     <use xlink:href="#SegoeUI-Semibold-65" transform="translate(424.722656 0)"/>
     <use xlink:href="#SegoeUI-Semibold-72" transform="translate(477.847656 0)"/>
     <use xlink:href="#SegoeUI-Semibold-20" transform="translate(514.859375 0)"/>
     <use xlink:href="#SegoeUI-Semibold-65" transform="translate(542.349609 0)"/>
     <use xlink:href="#SegoeUI-Semibold-70" transform="translate(595.474609 0)"/>
     <use xlink:href="#SegoeUI-Semibold-69" transform="translate(655.728516 0)"/>
     <use xlink:href="#SegoeUI-Semibold-73" transform="translate(681.851562 0)"/>
     <use xlink:href="#SegoeUI-Semibold-6f" transform="translate(724.966797 0)"/>
     <use xlink:href="#SegoeUI-Semibold-64" transform="translate(784.683594 0)"/>
     <use xlink:href="#SegoeUI-Semibold-65" transform="translate(844.9375 0)"/>
    </g>
   </g>
   <g id="legend_1">
    <g id="line2d_29">
     <path d="M 42.757813 31.665937 
L 50.757813 31.665937 
L 58.757813 31.665937 
" style="fill: none; stroke: #2a78d6; stroke-width: 2; stroke-linecap: square"/>
    </g>
    <g id="text_17">
     <!-- Avg(20) -->
     <g style="fill: #0b0b0b" transform="translate(65.157813 34.465937) scale(0.08 -0.08)">
      <defs>
       <path id="SegoeUI-41" d="M 4056 0 
L 3475 0 
L 3000 1256 
L 1100 1256 
L 653 0 
L 69 0 
L 1788 4481 
L 2331 4481 
L 4056 0 
z
M 2828 1728 
L 2125 3638 
Q 2091 3731 2056 3938 
L 2044 3938 
Q 2013 3747 1972 3638 
L 1275 1728 
L 2828 1728 
z
" transform="scale(0.015625)"/>
       <path id="SegoeUI-76" d="M 3034 3200 
L 1759 0 
L 1256 0 
L 44 3200 
L 606 3200 
L 1419 875 
Q 1509 619 1531 428 
L 1544 428 
Q 1575 669 1644 863 
L 2494 3200 
L 3034 3200 
z
" transform="scale(0.015625)"/>
       <path id="SegoeUI-67" d="M 3250 256 
Q 3250 -1506 1563 -1506 
Q 969 -1506 525 -1281 
L 525 -769 
Q 1066 -1069 1556 -1069 
Q 2738 -1069 2738 188 
L 2738 538 
L 2725 538 
Q 2359 -75 1625 -75 
Q 1028 -75 664 351 
Q 300 778 300 1497 
Q 300 2313 692 2794 
Q 1084 3275 1766 3275 
Q 2413 3275 2725 2756 
L 2738 2756 
L 2738 3200 
L 3250 3200 
L 3250 256 
z
M 2738 1447 
L 2738 1919 
Q 2738 2300 2480 2572 
Q 2222 2844 1838 2844 
Q 1363 2844 1094 2498 
Q 825 2153 825 1531 
Q 825 997 1083 676 
Q 1341 356 1766 356 
Q 2197 356 2467 662 
Q 2738 969 2738 1447 
z
" transform="scale(0.015625)"/>
       <path id="SegoeUI-28" d="M 1863 -1019 
L 1406 -1019 
Q 438 88 438 1709 
Q 438 3338 1406 4481 
L 1869 4481 
Q 888 3294 888 1716 
Q 888 150 1863 -1019 
z
" transform="scale(0.015625)"/>
       <path id="SegoeUI-29" d="M 531 -1019 
L 75 -1019 
Q 1050 150 1050 1716 
Q 1050 3294 69 4481 
L 531 4481 
Q 1506 3338 1506 1709 
Q 1506 88 531 -1019 
z
" transform="scale(0.015625)"/>
      </defs>
      <use xlink:href="#SegoeUI-41"/>
      <use xlink:href="#SegoeUI-76" transform="translate(62.376953 0)"/>
      <use xlink:href="#SegoeUI-67" transform="translate(109.652344 0)"/>
      <use xlink:href="#SegoeUI-28" transform="translate(168.539062 0)"/>
      <use xlink:href="#SegoeUI-32" transform="translate(198.714844 0)"/>
      <use xlink:href="#SegoeUI-30" transform="translate(252.621094 0)"/>
      <use xlink:href="#SegoeUI-29" transform="translate(306.527344 0)"/>
     </g>
    </g>
   </g>
  </g>
 </g>
 <defs>
  <clipPath id="p4bd76f997e">
   <rect x="35.557813" y="21.343437" width="401.76" height="166.32"/>
  </clipPath>
 </defs>
</svg>
